  0
SECTION
  2
HEADER
  9
$ACADVER
  1
AC1009
  9
$DWGCODEPAGE
  3
ansi_1252
  9
$INSBASE
 10
0.0
 20
0.0
 30
0.0
  9
$EXTMIN
 10
19.40565757282382
 20
19.38955264947583
 30
0.0
  9
$EXTMAX
 10
297.5106949038794
 20
228.1662479694022
 30
0.0
  9
$LIMMIN
 10
0.0
 20
0.0
  9
$LIMMAX
 10
12.0
 20
9.0
  9
$ORTHOMODE
 70
     0
  9
$REGENMODE
 70
     1
  9
$FILLMODE
 70
     1
  9
$QTEXTMODE
 70
     0
  9
$MIRRTEXT
 70
     1
  9
$DRAGMODE
 70
     2
  9
$LTSCALE
 40
1.0
  9
$OSMODE
 70
    37
  9
$ATTMODE
 70
     1
  9
$TEXTSIZE
 40
0.2
  9
$TRACEWID
 40
0.05
  9
$TEXTSTYLE
  7
STANDARD
  9
$CLAYER
  8
DEFAULT
  9
$CELTYPE
  6
BYLAYER
  9
$CECOLOR
 62
   256
  9
$DIMSCALE
 40
1.0
  9
$DIMASZ
 40
0.18
  9
$DIMEXO
 40
0.0625
  9
$DIMDLI
 40
0.38
  9
$DIMRND
 40
0.0
  9
$DIMDLE
 40
0.0
  9
$DIMEXE
 40
0.18
  9
$DIMTP
 40
0.0
  9
$DIMTM
 40
0.0
  9
$DIMTXT
 40
0.18
  9
$DIMCEN
 40
0.09
  9
$DIMTSZ
 40
0.0
  9
$DIMTOL
 70
     0
  9
$DIMLIM
 70
     0
  9
$DIMTIH
 70
     1
  9
$DIMTOH
 70
     1
  9
$DIMSE1
 70
     0
  9
$DIMSE2
 70
     0
  9
$DIMTAD
 70
     0
  9
$DIMZIN
 70
     0
  9
$DIMBLK
  1

  9
$DIMASO
 70
     1
  9
$DIMSHO
 70
     1
  9
$DIMPOST
  1

  9
$DIMAPOST
  1

  9
$DIMALT
 70
     0
  9
$DIMALTD
 70
     2
  9
$DIMALTF
 40
25.4
  9
$DIMLFAC
 40
1.0
  9
$DIMTOFL
 70
     0
  9
$DIMTVP
 40
0.0
  9
$DIMTIX
 70
     0
  9
$DIMSOXD
 70
     0
  9
$DIMSAH
 70
     0
  9
$DIMBLK1
  1

  9
$DIMBLK2
  1

  9
$DIMSTYLE
  2
STANDARD
  9
$DIMCLRD
 70
     0
  9
$DIMCLRE
 70
     0
  9
$DIMCLRT
 70
     0
  9
$DIMTFAC
 40
1.0
  9
$DIMGAP
 40
0.09
  9
$LUNITS
 70
     2
  9
$LUPREC
 70
     3
  9
$SKETCHINC
 40
0.1
  9
$FILLETRAD
 40
0.5
  9
$AUNITS
 70
     0
  9
$AUPREC
 70
     0
  9
$MENU
  1
.
  9
$ELEVATION
 40
0.0
  9
$PELEVATION
 40
0.0
  9
$THICKNESS
 40
0.0
  9
$LIMCHECK
 70
     0
  9
$CHAMFERA
 40
0.0
  9
$CHAMFERB
 40
0.0
  9
$SKPOLY
 70
     0
  9
$TDCREATE
 40
2457531.948076493
  9
$TDUPDATE
 40
2457531.948098518
  9
$TDINDWG
 40
0.0000000116
  9
$TDUSRTIMER
 40
0.0000000116
  9
$USRTIMER
 70
     1
  9
$ANGBASE
 50
0.0
  9
$ANGDIR
 70
     0
  9
$PDMODE
 70
     0
  9
$PDSIZE
 40
0.0
  9
$PLINEWID
 40
0.0
  9
$COORDS
 70
     1
  9
$SPLFRAME
 70
     0
  9
$SPLINETYPE
 70
     6
  9
$SPLINESEGS
 70
     8
  9
$ATTDIA
 70
     0
  9
$ATTREQ
 70
     1
  9
$HANDLING
 70
     1
  9
$HANDSEED
  5
283
  9
$SURFTAB1
 70
     6
  9
$SURFTAB2
 70
     6
  9
$SURFTYPE
 70
     6
  9
$SURFU
 70
     6
  9
$SURFV
 70
     6
  9
$UCSNAME
  2

  9
$UCSORG
 10
0.0
 20
0.0
 30
0.0
  9
$UCSXDIR
 10
1.0
 20
0.0
 30
0.0
  9
$UCSYDIR
 10
0.0
 20
1.0
 30
0.0
  9
$PUCSNAME
  2

  9
$PUCSORG
 10
0.0
 20
0.0
 30
0.0
  9
$PUCSXDIR
 10
1.0
 20
0.0
 30
0.0
  9
$PUCSYDIR
 10
0.0
 20
1.0
 30
0.0
  9
$USERI1
 70
     0
  9
$USERI2
 70
     0
  9
$USERI3
 70
     0
  9
$USERI4
 70
     0
  9
$USERI5
 70
     0
  9
$USERR1
 40
0.0
  9
$USERR2
 40
0.0
  9
$USERR3
 40
0.0
  9
$USERR4
 40
0.0
  9
$USERR5
 40
0.0
  9
$WORLDVIEW
 70
     1
  9
$SHADEDGE
 70
     3
  9
$SHADEDIF
 70
    70
  9
$TILEMODE
 70
     1
  9
$MAXACTVP
 70
    64
  9
$PLIMCHECK
 70
     0
  9
$PEXTMIN
 10
1.000000000000000E+20
 20
1.000000000000000E+20
 30
1.000000000000000E+20
  9
$PEXTMAX
 10
-1.000000000000000E+20
 20
-1.000000000000000E+20
 30
-1.000000000000000E+20
  9
$PLIMMIN
 10
0.0
 20
0.0
  9
$PLIMMAX
 10
12.0
 20
9.0
  9
$UNITMODE
 70
     0
  9
$VISRETAIN
 70
     1
  9
$PLINEGEN
 70
     0
  9
$PSLTSCALE
 70
     1
  0
ENDSEC
  0
SECTION
  2
TABLES
  0
TABLE
  2
VPORT
 70
     1
  0
VPORT
  2
*ACTIVE
 70
     0
 10
0.0
 20
0.0
 11
1.0
 21
1.0
 12
158.4581762383516
 22
123.777900309439
 13
0.0
 23
0.0
 14
0.5
 24
0.5
 15
0.5
 25
0.5
 16
0.0
 26
0.0
 36
1.0
 17
0.0
 27
0.0
 37
0.0
 40
212.9522292263249
 41
1.332069352400139
 42
50.0
 43
0.0
 44
0.0
 50
0.0
 51
0.0
 71
     0
 72
   100
 73
     1
 74
     3
 75
     0
 76
     0
 77
     0
 78
     0
  0
ENDTAB
  0
TABLE
  2
LTYPE
 70
     1
  0
LTYPE
  2
CONTINUOUS
 70
     0
  3
Solid line
 72
    65
 73
     0
 40
0.0
  0
ENDTAB
  0
TABLE
  2
LAYER
 70
     3
  0
LAYER
  2
0
 70
     0
 62
     7
  6
CONTINUOUS
  0
LAYER
  2
LAYER_01
 70
     0
 62
    12
  6
CONTINUOUS
  0
LAYER
  2
DEFAULT
 70
     0
 62
     7
  6
CONTINUOUS
  0
ENDTAB
  0
TABLE
  2
STYLE
 70
     1
  0
STYLE
  2
STANDARD
 70
     0
 40
0.0
 41
1.0
 50
0.0
 71
     0
 42
0.2
  3
txt
  4

  0
ENDTAB
  0
TABLE
  2
VIEW
 70
     0
  0
ENDTAB
  0
TABLE
  2
UCS
 70
     0
  0
ENDTAB
  0
TABLE
  2
APPID
 70
     1
  0
APPID
  2
ACAD
 70
     0
  0
ENDTAB
  0
TABLE
  2
DIMSTYLE
 70
     1
  0
DIMSTYLE
  2
STANDARD
 70
     0
  3

  4

  5

  6

  7

 40
1.0
 41
0.18
 42
0.0625
 43
0.38
 44
0.18
 45
0.0
 46
0.0
 47
0.0
 48
0.0
140
0.18
141
0.09
142
0.0
143
25.4
144
1.0
145
0.0
146
1.0
147
0.09
 71
     0
 72
     0
 73
     1
 74
     1
 75
     0
 76
     0
 77
     0
 78
     0
170
     0
171
     2
172
     0
173
     0
174
     0
175
     0
176
     0
177
     0
178
     0
  0
ENDTAB
  0
ENDSEC
  0
SECTION
  2
BLOCKS
  0
BLOCK
  8
0
  2
$MODEL_SPACE
 70
     0
 10
0.0
 20
0.0
 30
0.0
  3
$MODEL_SPACE
  1

  0
ENDBLK
  5
21
  8
0
  0
BLOCK
 67
     1
  8
0
  2
$PAPER_SPACE
 70
     0
 10
0.0
 20
0.0
 30
0.0
  3
$PAPER_SPACE
  1

  0
ENDBLK
  5
1D
 67
     1
  8
0
  0
ENDSEC
  0
SECTION
  2
ENTITIES
  0
CIRCLE
  5
6F
  8
LAYER_01
 10
97.53692978738331
 20
79.36004545628498
 30
0.0
 40
1.0
  0
CIRCLE
  5
70
  8
LAYER_01
 10
80.30155399163755
 20
96.5954212550904
 30
0.0
 40
1.0
  0
CIRCLE
  5
71
  8
LAYER_01
 10
168.2118600820593
 20
97.5208248601532
 30
0.0
 40
1.0
  0
CIRCLE
  5
72
  8
LAYER_01
 10
150.9764842832544
 20
80.28544906440743
 30
0.0
 40
1.0
  0
CIRCLE
  5
73
  8
LAYER_01
 10
167.2864564739382
 20
150.9603793560242
 30
0.0
 40
1.0
  0
CIRCLE
  5
74
  8
LAYER_01
 10
150.0510806781924
 20
168.1957551548296
 30
0.0
 40
1.0
  0
CIRCLE
  5
75
  8
LAYER_01
 10
79.37615038351464
 20
150.0349757509618
 30
0.0
 40
1.0
  0
CIRCLE
  5
76
  8
LAYER_01
 10
96.61152618231995
 20
167.2703515467076
 30
0.0
 40
1.0
  0
ARC
  5
77
  8
LAYER_01
 10
35.90565759611366
 20
24.56703284114653
 30
0.0
 40
1.0
 50
269.9999999999968
 51
0.0000000000065138
  0
LINE
  5
78
  8
LAYER_01
 10
36.90565759611366
 20
24.56703284114664
 30
0.0
 11
36.90565759611366
 21
26.98572951313108
 31
0.0
  0
ARC
  5
79
  8
LAYER_01
 10
35.90565759611366
 20
26.98572951313108
 30
0.0
 40
1.00000000000005
 50
0.0
 51
84.26082952273426
  0
ARC
  5
7A
  8
LAYER_01
 10
35.4056575961132
 20
22.01079232760017
 30
0.0
 40
5.999999999997859
 50
84.26082952273082
 51
95.73917047726921
  0
ARC
  5
7B
  8
LAYER_01
 10
34.90565759611366
 20
26.98572951313108
 30
0.0
 40
0.9999999999999614
 50
95.73917047726341
 51
179.9999999999967
  0
LINE
  5
7C
  8
LAYER_01
 10
33.90565759611366
 20
26.98572951313113
 30
0.0
 11
33.90565759611366
 21
24.56703284114664
 31
0.0
  0
ARC
  5
7D
  8
LAYER_01
 10
34.90565759611366
 20
24.56703284114664
 30
0.0
 40
1.0
 50
180.0
 51
269.9999999999968
  0
LINE
  5
7E
  8
LAYER_01
 10
34.9056575961132
 20
23.56703284114664
 30
0.0
 11
35.9056575961132
 21
23.56703284114653
 31
0.0
  0
ARC
  5
7F
  8
LAYER_01
 10
35.90565759611366
 20
46.45455181404921
 30
0.0
 40
1.0
 50
359.9999999999935
 51
89.99999999999511
  0
LINE
  5
80
  8
LAYER_01
 10
35.90565759611366
 20
47.45455181404921
 30
0.0
 11
34.90565759611366
 21
47.45455181404921
 31
0.0
  0
ARC
  5
81
  8
LAYER_01
 10
34.90565759611366
 20
46.45455181404921
 30
0.0
 40
1.0
 50
89.9999999999943
 51
180.0
  0
LINE
  5
82
  8
LAYER_01
 10
33.90565759611366
 20
46.45455181404921
 30
0.0
 11
33.90565759611366
 21
44.03585514206478
 31
0.0
  0
ARC
  5
83
  8
LAYER_01
 10
34.9056575961132
 20
44.03585514206478
 30
0.0
 40
0.9999999999999005
 50
180.0
 51
264.2608295227379
  0
ARC
  5
84
  8
LAYER_01
 10
35.40565759611275
 20
49.01079232759972
 30
0.0
 40
6.000000000001758
 50
264.2608295227402
 51
275.7391704772707
  0
ARC
  5
85
  8
LAYER_01
 10
35.90565759611366
 20
44.03585514206478
 30
0.0
 40
0.999999999999929
 50
275.7391704772632
 51
359.9999999999968
  0
LINE
  5
86
  8
LAYER_01
 10
36.90565759611366
 20
44.03585514206478
 30
0.0
 11
36.90565759611366
 21
46.45455181404921
 31
0.0
  0
ARC
  5
87
  8
LAYER_01
 10
201.1173537281767
 20
35.88955267276614
 30
0.0
 40
1.0
 50
89.99999999999349
 51
179.9999999999951
  0
LINE
  5
88
  8
LAYER_01
 10
200.1173537281771
 20
35.88955267276626
 30
0.0
 11
200.1173537281767
 21
34.88955267276614
 31
0.0
  0
ARC
  5
89
  8
LAYER_01
 10
201.1173537281767
 20
34.88955267276603
 30
0.0
 40
1.0
 50
179.9999999999943
 51
270.0
  0
LINE
  5
8A
  8
LAYER_01
 10
201.1173537281767
 20
33.88955267276603
 30
0.0
 11
203.5360504001616
 21
33.88955267276603
 31
0.0
  0
ARC
  5
8B
  8
LAYER_01
 10
203.5360504001616
 20
34.88955267276597
 30
0.0
 40
0.9999999999999432
 50
269.9999999999984
 51
354.2608295227382
  0
ARC
  5
8C
  8
LAYER_01
 10
198.5611132146311
 20
35.38955267276506
 30
0.0
 40
5.999999999997189
 50
354.2608295227402
 51
5.739170477279517
  0
ARC
  5
8D
  8
LAYER_01
 10
203.5360504001611
 20
35.88955267276597
 30
0.0
 40
1.000000000000057
 50
5.739170477274343
 51
89.99999999999675
  0
LINE
  5
8E
  8
LAYER_01
 10
203.5360504001616
 20
36.88955267276609
 30
0.0
 11
201.1173537281771
 21
36.88955267276609
 31
0.0
  0
ARC
  5
8F
  8
LAYER_01
 10
211.6823528694606
 20
222.9887677777322
 30
0.0
 40
1.0
 50
89.99999999999675
 51
180.0000000000065
  0
LINE
  5
90
  8
LAYER_01
 10
210.6823528694606
 20
222.9887677777319
 30
0.0
 11
210.6823528694606
 21
220.5700711057475
 31
0.0
  0
ARC
  5
91
  8
LAYER_01
 10
211.6823528694608
 20
220.5700711057475
 30
0.0
 40
1.000000000000028
 50
179.9999999999984
 51
264.2608295227353
  0
ARC
  5
92
  8
LAYER_01
 10
212.1823528694611
 20
225.5450082912762
 30
0.0
 40
5.9999999999956
 50
264.2608295227263
 51
275.739170477269
  0
ARC
  5
93
  8
LAYER_01
 10
212.6823528694606
 20
220.5700711057475
 30
0.0
 40
0.9999999999999614
 50
275.7391704772633
 51
359.9999999999968
  0
LINE
  5
94
  8
LAYER_01
 10
213.6823528694606
 20
220.5700711057475
 30
0.0
 11
213.6823528694606
 21
222.9887677777319
 31
0.0
  0
ARC
  5
95
  8
LAYER_01
 10
212.6823528694606
 20
222.9887677777319
 30
0.0
 40
1.0
 50
0.0
 51
89.99999999999675
  0
LINE
  5
96
  8
LAYER_01
 10
212.6823528694608
 20
223.9887677777319
 30
0.0
 11
211.6823528694608
 21
223.9887677777322
 31
0.0
  0
ARC
  5
97
  8
LAYER_01
 10
211.6823528694606
 20
201.1012488048293
 30
0.0
 40
1.0
 50
179.9999999999935
 51
269.9999999999951
  0
LINE
  5
98
  8
LAYER_01
 10
211.6823528694606
 20
200.1012488048293
 30
0.0
 11
212.6823528694606
 21
200.1012488048293
 31
0.0
  0
ARC
  5
99
  8
LAYER_01
 10
212.6823528694606
 20
201.1012488048293
 30
0.0
 40
1.0
 50
269.9999999999951
 51
0.0
  0
LINE
  5
9A
  8
LAYER_01
 10
213.6823528694606
 20
201.1012488048293
 30
0.0
 11
213.6823528694606
 21
203.519945476814
 31
0.0
  0
ARC
  5
9B
  8
LAYER_01
 10
212.6823528694606
 20
203.519945476814
 30
0.0
 40
1.0
 50
0.0
 51
84.2608295227336
  0
ARC
  5
9C
  8
LAYER_01
 10
212.1823528694606
 20
198.5450082912821
 30
0.0
 40
5.999999999998598
 50
84.26082952273384
 51
95.73917047726945
  0
ARC
  5
9D
  8
LAYER_01
 10
211.6823528694606
 20
203.5199454768137
 30
0.0
 40
1.0
 50
95.73917047727467
 51
179.9999999999967
  0
LINE
  5
9E
  8
LAYER_01
 10
210.6823528694606
 20
203.5199454768139
 30
0.0
 11
210.6823528694606
 21
201.1012488048295
 31
0.0
  0
ARC
  5
A0
  8
DEFAULT
 10
179.9171265509729
 20
19.42223702128797
 30
0.0
 40
20.00000000000105
 50
26.32974534994246
 51
31.79009440707333
  0
ARC
  5
A1
  8
DEFAULT
 10
212.1823528927503
 20
35.38955267276606
 30
0.0
 40
15.99999999999985
 50
206.3297453499576
 51
63.56415641452197
  0
ARC
  5
A2
  8
DEFAULT
 10
228.209388703664
 20
67.62515601930147
 30
0.0
 40
19.99999999999284
 50
238.0148098744462
 51
243.5641564145265
  0
LINE
  5
A3
  8
DEFAULT
 10
217.6153878606083
 20
50.66145518083317
 30
0.0
 11
215.2344286524265
 21
52.19107039282027
 31
0.0
  0
LINE
  5
A4
  8
DEFAULT
 10
215.2344286524265
 20
52.19107039282027
 30
0.0
 11
212.896929706916
 21
53.77841803768774
 31
0.0
  0
LINE
  5
A5
  8
DEFAULT
 10
212.896929706916
 20
53.77841803768774
 30
0.0
 11
210.6025607329487
 21
55.42296797095172
 31
0.0
  0
LINE
  5
A6
  8
DEFAULT
 10
210.6025607329487
 20
55.42296797095172
 30
0.0
 11
208.3509914393969
 21
57.12419004812836
 31
0.0
  0
LINE
  5
A7
  8
DEFAULT
 10
208.3509914393969
 20
57.12419004812836
 30
0.0
 11
206.1418915351323
 21
58.88155412473377
 31
0.0
  0
LINE
  5
A8
  8
DEFAULT
 10
206.1418915351323
 20
58.88155412473377
 30
0.0
 11
203.9749307290272
 21
60.69453005628408
 31
0.0
  0
LINE
  5
A9
  8
DEFAULT
 10
203.9749307290272
 20
60.69453005628408
 30
0.0
 11
201.8497787299535
 21
62.56258769829544
 31
0.0
  0
LINE
  5
AA
  8
DEFAULT
 10
201.8497787299535
 20
62.56258769829544
 30
0.0
 11
199.7661052467832
 21
64.48519690628396
 31
0.0
  0
LINE
  5
AB
  8
DEFAULT
 10
199.7661052467832
 20
64.48519690628396
 30
0.0
 11
197.7235799883884
 21
66.46182753576579
 31
0.0
  0
LINE
  5
AC
  8
DEFAULT
 10
197.7235799883884
 20
66.46182753576579
 30
0.0
 11
195.721872663641
 21
68.49194944225704
 31
0.0
  0
LINE
  5
AD
  8
DEFAULT
 10
195.721872663641
 20
68.49194944225704
 30
0.0
 11
193.7606529814132
 21
70.57503248127387
 31
0.0
  0
LINE
  5
AE
  8
DEFAULT
 10
193.7606529814132
 20
70.57503248127387
 30
0.0
 11
191.8395906505768
 21
72.71054650833238
 31
0.0
  0
LINE
  5
AF
  8
DEFAULT
 10
191.8395906505768
 20
72.71054650833238
 30
0.0
 11
189.958355380004
 21
74.89796137894874
 31
0.0
  0
LINE
  5
B0
  8
DEFAULT
 10
189.958355380004
 20
74.89796137894874
 30
0.0
 11
188.1166168785668
 21
77.13674694863901
 31
0.0
  0
LINE
  5
B1
  8
DEFAULT
 10
188.1166168785668
 20
77.13674694863901
 30
0.0
 11
186.3140448551372
 21
79.42637307291938
 31
0.0
  0
LINE
  5
B2
  8
DEFAULT
 10
186.3140448551372
 20
79.42637307291938
 30
0.0
 11
184.5503090185872
 21
81.76630960730597
 31
0.0
  0
LINE
  5
B3
  8
DEFAULT
 10
184.5503090185872
 20
81.76630960730597
 30
0.0
 11
181.9704051341118
 21
85.38473065079825
 31
0.0
  0
LINE
  5
B4
  8
DEFAULT
 10
181.9704051341118
 20
85.38473065079825
 30
0.0
 11
180.7227068486913
 21
87.23299804938247
 31
0.0
  0
LINE
  5
B5
  8
DEFAULT
 10
180.7227068486913
 20
87.23299804938247
 30
0.0
 11
179.5082256258149
 21
89.10552615662036
 31
0.0
  0
LINE
  5
B6
  8
DEFAULT
 10
179.5082256258149
 20
89.10552615662036
 30
0.0
 11
178.3307474339819
 21
91.00098206558309
 31
0.0
  0
LINE
  5
B7
  8
DEFAULT
 10
178.3307474339819
 20
91.00098206558309
 30
0.0
 11
177.1940582416918
 21
92.91803286934187
 31
0.0
  0
LINE
  5
B8
  8
DEFAULT
 10
177.1940582416918
 20
92.91803286934187
 30
0.0
 11
176.1019440174439
 21
94.8553456609679
 31
0.0
  0
LINE
  5
B9
  8
DEFAULT
 10
176.1019440174439
 20
94.8553456609679
 30
0.0
 11
175.0581907297378
 21
96.81158753353236
 31
0.0
  0
ARC
  5
BA
  8
DEFAULT
 10
177.2779065056168
 20
97.96174485942879
 30
0.0
 40
2.5
 50
89.9999999999948
 51
207.391168357861
  0
LINE
  5
BB
  8
DEFAULT
 10
177.277906505617
 20
100.4617448594288
 30
0.0
 11
190.6107937793918
 21
100.4617448594288
 31
0.0
  0
ARC
  5
BC
  8
DEFAULT
 10
190.6107937793915
 20
102.4617448594288
 30
0.0
 40
2.0
 50
270.0000000000065
 51
359.9999999999992
  0
LINE
  5
BD
  8
DEFAULT
 10
192.6107937793915
 20
102.4617448594288
 30
0.0
 11
192.6107937793918
 21
123.7779003074985
 31
0.0
  0
LINE
  5
BE
  8
DEFAULT
 10
192.6107937793918
 20
123.7779003074985
 30
0.0
 11
192.6107937793918
 21
145.1320864368765
 31
0.0
  0
ARC
  5
BF
  8
DEFAULT
 10
190.6107937793918
 20
145.1320864368765
 30
0.0
 40
2.0
 50
359.9999999999984
 51
90.0
  0
LINE
  5
C0
  8
DEFAULT
 10
190.6107937793918
 20
147.1320864368765
 30
0.0
 11
177.2282180062996
 21
147.1320864368765
 31
0.0
  0
ARC
  5
C1
  8
DEFAULT
 10
177.2282180062996
 20
149.6320864368765
 30
0.0
 40
2.5
 50
152.7583457582777
 51
270.0
  0
LINE
  5
C2
  8
DEFAULT
 10
175.0055084402782
 20
150.7764474747997
 30
0.0
 11
176.0453123371913
 21
152.7372440535871
 31
0.0
  0
LINE
  5
C3
  8
DEFAULT
 10
176.0453123371913
 20
152.7372440535871
 30
0.0
 11
177.1338253173465
 21
154.6789046549059
 31
0.0
  0
LINE
  5
C4
  8
DEFAULT
 10
177.1338253173465
 20
154.6789046549059
 30
0.0
 11
178.2673290095049
 21
156.6000800717973
 31
0.0
  0
LINE
  5
C5
  8
DEFAULT
 10
178.2673290095049
 20
156.6000800717973
 30
0.0
 11
179.4421050424281
 21
158.4994210973027
 31
0.0
  0
LINE
  5
C6
  8
DEFAULT
 10
179.4421050424281
 20
158.4994210973027
 30
0.0
 11
180.6544350448773
 21
160.3755785244633
 31
0.0
  0
LINE
  5
C7
  8
DEFAULT
 10
180.6544350448773
 20
160.3755785244633
 30
0.0
 11
181.9006006456139
 21
162.2272031463205
 31
0.0
  0
LINE
  5
C8
  8
DEFAULT
 10
181.9006006456139
 20
162.2272031463205
 30
0.0
 11
184.4795651569949
 21
165.8514571462897
 31
0.0
  0
LINE
  5
C9
  8
DEFAULT
 10
184.4795651569949
 20
165.8514571462897
 30
0.0
 11
186.242077916018
 21
168.1915353014634
 31
0.0
  0
LINE
  5
CA
  8
DEFAULT
 10
186.242077916018
 20
168.1915353014634
 30
0.0
 11
188.0446623169891
 21
170.4808607062242
 31
0.0
  0
LINE
  5
CB
  8
DEFAULT
 10
188.0446623169891
 20
170.4808607062242
 30
0.0
 11
189.8875417976063
 21
172.7188946457705
 31
0.0
  0
LINE
  5
CC
  8
DEFAULT
 10
189.8875417976063
 20
172.7188946457705
 30
0.0
 11
191.7709397955677
 21
174.9050984053007
 31
0.0
  0
LINE
  5
CD
  8
DEFAULT
 10
191.7709397955677
 20
174.9050984053007
 30
0.0
 11
193.6950797485713
 21
177.0389332700131
 31
0.0
  0
LINE
  5
CE
  8
DEFAULT
 10
193.6950797485713
 20
177.0389332700131
 30
0.0
 11
195.6601850943153
 21
179.119860525106
 31
0.0
  0
LINE
  5
CF
  8
DEFAULT
 10
195.6601850943153
 20
179.119860525106
 30
0.0
 11
197.6664792704976
 21
181.1473414557778
 31
0.0
  0
LINE
  5
D0
  8
DEFAULT
 10
197.6664792704976
 20
181.1473414557778
 30
0.0
 11
199.7141857148162
 21
183.1208373472269
 31
0.0
  0
LINE
  5
D1
  8
DEFAULT
 10
199.7141857148162
 20
183.1208373472269
 30
0.0
 11
201.8035278649693
 21
185.0398094846516
 31
0.0
  0
LINE
  5
D2
  8
DEFAULT
 10
201.8035278649693
 20
185.0398094846516
 30
0.0
 11
203.934729158655
 21
186.9037191532503
 31
0.0
  0
LINE
  5
D3
  8
DEFAULT
 10
203.934729158655
 20
186.9037191532503
 30
0.0
 11
206.1080130335712
 21
188.7120276382214
 31
0.0
  0
LINE
  5
D4
  8
DEFAULT
 10
206.1080130335712
 20
188.7120276382214
 30
0.0
 11
208.3236029274161
 21
190.4641962247631
 31
0.0
  0
LINE
  5
D5
  8
DEFAULT
 10
208.3236029274161
 20
190.4641962247631
 30
0.0
 11
210.5817222778877
 21
192.1596861980739
 31
0.0
  0
LINE
  5
D6
  8
DEFAULT
 10
210.5817222778877
 20
192.1596861980739
 30
0.0
 11
212.8825945226841
 21
193.7979588433521
 31
0.0
  0
LINE
  5
D7
  8
DEFAULT
 10
212.8825945226841
 20
193.7979588433521
 30
0.0
 11
215.2264430995033
 21
195.3784754457961
 31
0.0
  0
LINE
  5
D8
  8
DEFAULT
 10
215.2264430995033
 20
195.3784754457961
 30
0.0
 11
217.6134914460433
 21
196.9006972906042
 31
0.0
  0
ARC
  5
D9
  8
DEFAULT
 10
228.1496685209452
 20
179.9010216276134
 30
0.0
 40
20.00000000001419
 50
116.3297453499449
 51
121.7900944070719
  0
ARC
  5
DA
  8
DEFAULT
 10
212.1823528694606
 20
212.1662479694023
 30
0.0
 40
15.99999999999992
 50
296.3297453499572
 51
153.5641564145226
  0
ARC
  5
DB
  8
DEFAULT
 10
179.9467495229303
 20
228.193283780313
 30
0.0
 40
19.99999999998681
 50
328.0148098744452
 51
333.5641564145272
  0
LINE
  5
DC
  8
DEFAULT
 10
196.9104503613932
 20
217.5992829372601
 30
0.0
 11
195.3808342921456
 21
215.2183228445266
 31
0.0
  0
LINE
  5
DD
  8
DEFAULT
 10
195.3808342921456
 20
215.2183228445266
 30
0.0
 11
193.7934859452189
 21
212.88082319396
 31
0.0
  0
LINE
  5
DE
  8
DEFAULT
 10
193.7934859452189
 20
212.88082319396
 30
0.0
 11
192.1489354563329
 21
210.5864536812419
 31
0.0
  0
LINE
  5
DF
  8
DEFAULT
 10
192.1489354563329
 20
210.5864536812419
 30
0.0
 11
190.4477129612071
 21
208.3348840020539
 31
0.0
  0
LINE
  5
E0
  8
DEFAULT
 10
190.4477129612071
 20
208.3348840020539
 30
0.0
 11
188.6903485955611
 21
206.1257838520776
 31
0.0
  0
LINE
  5
E1
  8
DEFAULT
 10
188.6903485955611
 20
206.1257838520776
 30
0.0
 11
186.8773724951145
 21
203.9588229269945
 31
0.0
  0
LINE
  5
E2
  8
DEFAULT
 10
186.8773724951145
 20
203.9588229269945
 30
0.0
 11
185.0093147955868
 21
201.8336709224862
 31
0.0
  0
LINE
  5
E3
  8
DEFAULT
 10
185.0093147955868
 20
201.8336709224862
 30
0.0
 11
183.0867056326976
 21
199.7499975342343
 31
0.0
  0
LINE
  5
E4
  8
DEFAULT
 10
183.0867056326976
 20
199.7499975342343
 30
0.0
 11
181.1100751421666
 21
197.7074724579203
 31
0.0
  0
LINE
  5
E5
  8
DEFAULT
 10
181.1100751421666
 20
197.7074724579203
 30
0.0
 11
179.0799534597132
 21
195.705765389226
 31
0.0
  0
LINE
  5
E6
  8
DEFAULT
 10
179.0799534597132
 20
195.705765389226
 30
0.0
 11
176.9968707210571
 21
193.7445460238328
 31
0.0
  0
LINE
  5
E7
  8
DEFAULT
 10
176.9968707210571
 20
193.7445460238328
 30
0.0
 11
174.8613570619178
 21
191.8234840574222
 31
0.0
  0
LINE
  5
E8
  8
DEFAULT
 10
174.8613570619178
 20
191.8234840574222
 30
0.0
 11
172.6739426180149
 21
189.942249185676
 31
0.0
  0
LINE
  5
E9
  8
DEFAULT
 10
172.6739426180149
 20
189.942249185676
 30
0.0
 11
170.435157525068
 21
188.1005111042756
 31
0.0
  0
LINE
  5
EA
  8
DEFAULT
 10
170.435157525068
 20
188.1005111042756
 30
0.0
 11
168.1455319187967
 21
186.2979395089027
 31
0.0
  0
LINE
  5
EB
  8
DEFAULT
 10
168.1455319187967
 20
186.2979395089027
 30
0.0
 11
165.8055959349205
 21
184.5342040952388
 31
0.0
  0
LINE
  5
EC
  8
DEFAULT
 10
165.8055959349205
 20
184.5342040952388
 30
0.0
 11
163.4202149549685
 21
182.8132578191698
 31
0.0
  0
LINE
  5
ED
  8
DEFAULT
 10
163.4202149549685
 20
182.8132578191698
 30
0.0
 11
160.9883158900621
 21
181.139501539145
 31
0.0
  0
LINE
  5
EE
  8
DEFAULT
 10
160.9883158900621
 20
181.139501539145
 30
0.0
 11
158.5129999458648
 21
179.5217438724046
 31
0.0
  0
LINE
  5
EF
  8
DEFAULT
 10
158.5129999458648
 20
179.5217438724046
 30
0.0
 11
155.9973683280404
 21
177.9687934361889
 31
0.0
  0
LINE
  5
F0
  8
DEFAULT
 10
155.9973683280404
 20
177.9687934361889
 30
0.0
 11
153.4445222422524
 21
176.4894588477382
 31
0.0
  0
LINE
  5
F1
  8
DEFAULT
 10
153.4445222422524
 20
176.4894588477382
 30
0.0
 11
150.8575628941644
 21
175.0925487242927
 31
0.0
  0
LINE
  5
F2
  8
DEFAULT
 10
150.8575628941644
 20
175.0925487242927
 30
0.0
 11
148.2395914894401
 21
173.7868716830928
 31
0.0
  0
LINE
  5
F3
  8
DEFAULT
 10
148.2395914894401
 20
173.7868716830928
 30
0.0
 11
146.9199453926092
 21
173.1709982612224
 31
0.0
  0
LINE
  5
F4
  8
DEFAULT
 10
146.9199453926092
 20
173.1709982612224
 30
0.0
 11
145.5937092337432
 21
172.5812363413785
 31
0.0
  0
LINE
  5
F5
  8
DEFAULT
 10
145.5937092337432
 20
172.5812363413785
 30
0.0
 11
144.2612706635499
 21
172.0186870007162
 31
0.0
  0
LINE
  5
F6
  8
DEFAULT
 10
144.2612706635499
 20
172.0186870007162
 30
0.0
 11
142.9230173327372
 21
171.4844513163903
 31
0.0
  0
LINE
  5
F7
  8
DEFAULT
 10
142.9230173327372
 20
171.4844513163903
 30
0.0
 11
141.5793368920133
 21
170.9796303655561
 31
0.0
  0
LINE
  5
F8
  8
DEFAULT
 10
141.5793368920133
 20
170.9796303655561
 30
0.0
 11
140.2306169920859
 21
170.5053252253685
 31
0.0
  0
LINE
  5
F9
  8
DEFAULT
 10
140.2306169920859
 20
170.5053252253685
 30
0.0
 11
138.8772452836631
 21
170.0626369729825
 31
0.0
  0
LINE
  5
FA
  8
DEFAULT
 10
138.8772452836631
 20
170.0626369729825
 30
0.0
 11
137.5196094174527
 21
169.6526666855532
 31
0.0
  0
LINE
  5
FB
  8
DEFAULT
 10
137.5196094174527
 20
169.6526666855532
 30
0.0
 11
136.1580970441629
 21
169.2765154402356
 31
0.0
  0
LINE
  5
FC
  8
DEFAULT
 10
136.1580970441629
 20
169.2765154402356
 30
0.0
 11
134.7930958145014
 21
168.9352843141847
 31
0.0
  0
LINE
  5
FD
  8
DEFAULT
 10
134.7930958145014
 20
168.9352843141847
 30
0.0
 11
133.4249933791764
 21
168.6300743845556
 31
0.0
  0
LINE
  5
FE
  8
DEFAULT
 10
133.4249933791764
 20
168.6300743845556
 30
0.0
 11
132.0541773888957
 21
168.3619867285033
 31
0.0
  0
LINE
  5
FF
  8
DEFAULT
 10
132.0541773888957
 20
168.3619867285033
 30
0.0
 11
130.6810354943672
 21
168.1321224231829
 31
0.0
  0
LINE
  5
100
  8
DEFAULT
 10
130.6810354943672
 20
168.1321224231829
 30
0.0
 11
129.3059553462989
 21
167.9415825457493
 31
0.0
  0
LINE
  5
101
  8
DEFAULT
 10
129.3059553462989
 20
167.9415825457493
 30
0.0
 11
127.9293245953989
 21
167.7914681733577
 31
0.0
  0
LINE
  5
102
  8
DEFAULT
 10
127.9293245953989
 20
167.7914681733577
 30
0.0
 11
126.551530892375
 21
167.682880383163
 31
0.0
  0
LINE
  5
103
  8
DEFAULT
 10
126.551530892375
 20
167.682880383163
 30
0.0
 11
125.1729618879352
 21
167.6169202523202
 31
0.0
  0
LINE
  5
104
  8
DEFAULT
 10
125.1729618879352
 20
167.6169202523202
 30
0.0
 11
123.7940052327874
 21
167.5946888579844
 31
0.0
  0
LINE
  5
105
  8
DEFAULT
 10
123.7940052327874
 20
167.5946888579845
 30
0.0
 11
122.4124805865219
 21
167.6167346862381
 31
0.0
  0
LINE
  5
106
  8
DEFAULT
 10
122.4124805865219
 20
167.6167346862381
 30
0.0
 11
121.0313472950664
 21
167.6821531499129
 31
0.0
  0
LINE
  5
107
  8
DEFAULT
 10
121.0313472950664
 20
167.6821531499129
 30
0.0
 11
119.6509967132311
 21
167.7898657162874
 31
0.0
  0
LINE
  5
108
  8
DEFAULT
 10
119.6509967132311
 20
167.7898657162874
 30
0.0
 11
118.2718201958259
 21
167.9387938526405
 31
0.0
  0
LINE
  5
109
  8
DEFAULT
 10
118.2718201958259
 20
167.9387938526405
 30
0.0
 11
116.8942090976609
 21
168.127859026251
 31
0.0
  0
LINE
  5
10A
  8
DEFAULT
 10
116.8942090976609
 20
168.127859026251
 30
0.0
 11
115.5185547735461
 21
168.3559827043975
 31
0.0
  0
LINE
  5
10B
  8
DEFAULT
 10
115.5185547735461
 20
168.3559827043975
 30
0.0
 11
114.1452485782917
 21
168.6220863543589
 31
0.0
  0
LINE
  5
10C
  8
DEFAULT
 10
114.1452485782917
 20
168.6220863543589
 30
0.0
 11
112.7746818667076
 21
168.925091443414
 31
0.0
  0
LINE
  5
10D
  8
DEFAULT
 10
112.7746818667076
 20
168.925091443414
 30
0.0
 11
111.407245993604
 21
169.2639194388416
 31
0.0
  0
LINE
  5
10E
  8
DEFAULT
 10
111.407245993604
 20
169.2639194388416
 30
0.0
 11
110.0433323137908
 21
169.6374918079204
 31
0.0
  0
LINE
  5
10F
  8
DEFAULT
 10
110.0433323137908
 20
169.6374918079204
 30
0.0
 11
108.6833321820782
 21
170.0447300179291
 31
0.0
  0
LINE
  5
110
  8
DEFAULT
 10
108.6833321820782
 20
170.0447300179291
 30
0.0
 11
107.3276369532761
 21
170.4845555361466
 31
0.0
  0
LINE
  5
111
  8
DEFAULT
 10
107.3276369532761
 20
170.4845555361466
 30
0.0
 11
105.9766379821947
 21
170.9558898298516
 31
0.0
  0
LINE
  5
112
  8
DEFAULT
 10
105.9766379821947
 20
170.9558898298516
 30
0.0
 11
104.6307266236439
 21
171.457654366323
 31
0.0
  0
LINE
  5
113
  8
DEFAULT
 10
104.6307266236439
 20
171.457654366323
 30
0.0
 11
103.2902942324339
 21
171.9887706128393
 31
0.0
  0
LINE
  5
114
  8
DEFAULT
 10
103.2902942324339
 20
171.9887706128393
 30
0.0
 11
101.9557321633747
 21
172.5481600366796
 31
0.0
  0
LINE
  5
115
  8
DEFAULT
 10
101.9557321633747
 20
172.5481600366796
 30
0.0
 11
100.6274317712763
 21
173.1347441051225
 31
0.0
  0
LINE
  5
116
  8
DEFAULT
 10
100.6274317712763
 20
173.1347441051225
 30
0.0
 11
99.3057844109488
 21
173.7474442854468
 31
0.0
  0
LINE
  5
117
  8
DEFAULT
 10
99.3057844109488
 20
173.7474442854468
 30
0.0
 11
96.68401420484669
 21
175.0468788508547
 31
0.0
  0
LINE
  5
118
  8
DEFAULT
 10
96.68401420484669
 20
175.0468788508547
 30
0.0
 11
94.09355238354877
 21
176.4378354711334
 31
0.0
  0
LINE
  5
119
  8
DEFAULT
 10
94.09355238354877
 20
176.4378354711334
 30
0.0
 11
91.53752978553548
 21
177.9116858845132
 31
0.0
  0
LINE
  5
11A
  8
DEFAULT
 10
91.53752978553548
 20
177.9116858845132
 30
0.0
 11
89.01907724928722
 21
179.4598018292243
 31
0.0
  0
LINE
  5
11B
  8
DEFAULT
 10
89.01907724928722
 20
179.4598018292243
 30
0.0
 11
86.54132561328444
 21
181.0735550434968
 31
0.0
  0
LINE
  5
11C
  8
DEFAULT
 10
86.54132561328444
 20
181.0735550434968
 30
0.0
 11
84.10740571600752
 21
182.7443172655609
 31
0.0
  0
LINE
  5
11D
  8
DEFAULT
 10
84.10740571600752
 20
182.7443172655609
 30
0.0
 11
81.72044839593693
 21
184.4634602336468
 31
0.0
  0
LINE
  5
11E
  8
DEFAULT
 10
81.72044839593693
 20
184.4634602336468
 30
0.0
 11
79.38037079126217
 21
186.2259725699293
 31
0.0
  0
LINE
  5
11F
  8
DEFAULT
 10
79.38037079126217
 20
186.2259725699293
 30
0.0
 11
77.09104590432884
 21
188.0285565424588
 31
0.0
  0
LINE
  5
120
  8
DEFAULT
 10
77.09104590432884
 20
188.0285565424588
 30
0.0
 11
74.85301244121109
 21
189.8714356022332
 31
0.0
  0
LINE
  5
121
  8
DEFAULT
 10
74.85301244121109
 20
189.8714356022332
 30
0.0
 11
72.666809107983
 21
191.7548332002506
 31
0.0
  0
LINE
  5
122
  8
DEFAULT
 10
72.666809107983
 20
191.7548332002506
 30
0.0
 11
70.53297461071872
 21
193.678972787509
 31
0.0
  0
LINE
  5
123
  8
DEFAULT
 10
70.53297461071872
 20
193.678972787509
 30
0.0
 11
68.45204765549238
 21
195.6440778150064
 31
0.0
  0
LINE
  5
124
  8
DEFAULT
 10
68.45204765549238
 20
195.6440778150064
 30
0.0
 11
66.4245669483781
 21
197.650371733741
 31
0.0
  0
LINE
  5
125
  8
DEFAULT
 10
66.4245669483781
 20
197.650371733741
 30
0.0
 11
64.45107119545
 21
199.6980779947106
 31
0.0
  0
LINE
  5
126
  8
DEFAULT
 10
64.45107119545
 20
199.6980779947106
 30
0.0
 11
62.5320991027822
 21
201.7874200489134
 31
0.0
  0
LINE
  5
127
  8
DEFAULT
 10
62.5320991027822
 20
201.7874200489134
 30
0.0
 11
60.66818937644881
 21
203.9186213473473
 31
0.0
  0
LINE
  5
128
  8
DEFAULT
 10
60.66818937644881
 20
203.9186213473473
 30
0.0
 11
58.85988072252398
 21
206.0919053410104
 31
0.0
  0
LINE
  5
129
  8
DEFAULT
 10
58.85988072252398
 20
206.0919053410104
 30
0.0
 11
57.10771184708182
 21
208.3074954809008
 31
0.0
  0
LINE
  5
12A
  8
DEFAULT
 10
57.10771184708182
 20
208.3074954809008
 30
0.0
 11
55.41222145619646
 21
210.5656152180164
 31
0.0
  0
LINE
  5
12B
  8
DEFAULT
 10
55.41222145619646
 20
210.5656152180164
 30
0.0
 11
53.77394825594201
 21
212.8664880033553
 31
0.0
  0
LINE
  5
12C
  8
DEFAULT
 10
53.77394825594201
 20
212.8664880033553
 30
0.0
 11
52.19343095239261
 21
215.2103372879155
 31
0.0
  0
LINE
  5
12D
  8
DEFAULT
 10
52.19343095239261
 20
215.2103372879155
 30
0.0
 11
50.67120825162237
 21
217.597386522695
 31
0.0
  0
ARC
  5
12E
  8
DEFAULT
 10
67.67088391461084
 20
228.1335635975953
 30
0.0
 40
20.00000000001138
 50
206.3297453499434
 51
211.7900944070713
  0
ARC
  5
12F
  8
DEFAULT
 10
35.40565757282388
 20
212.1662479461128
 30
0.0
 40
16.00000000000006
 50
26.32974534995531
 51
243.5641564145244
  0
ARC
  5
130
  8
DEFAULT
 10
19.37862176190697
 20
179.9306445995718
 30
0.0
 40
19.99999999999908
 50
58.01480987444514
 51
63.56415641452369
  0
LINE
  5
131
  8
DEFAULT
 10
29.97262260496632
 20
196.8943454380451
 30
0.0
 11
32.35358181314812
 21
195.364730226058
 31
0.0
  0
LINE
  5
132
  8
DEFAULT
 10
32.35358181314812
 20
195.364730226058
 30
0.0
 11
34.69108075865864
 21
193.7773825811905
 31
0.0
  0
LINE
  5
133
  8
DEFAULT
 10
34.69108075865864
 20
193.7773825811905
 30
0.0
 11
36.98544973262587
 21
192.1328326479265
 31
0.0
  0
LINE
  5
134
  8
DEFAULT
 10
36.98544973262587
 20
192.1328326479265
 30
0.0
 11
39.23701902617776
 21
190.4316105707499
 31
0.0
  0
LINE
  5
135
  8
DEFAULT
 10
39.23701902617776
 20
190.4316105707499
 30
0.0
 11
41.4461189304423
 21
188.6742464941445
 31
0.0
  0
LINE
  5
136
  8
DEFAULT
 10
41.4461189304423
 20
188.6742464941445
 30
0.0
 11
43.61307973654746
 21
186.8612705625942
 31
0.0
  0
LINE
  5
137
  8
DEFAULT
 10
43.61307973654746
 20
186.8612705625942
 30
0.0
 11
45.73823173562121
 21
184.9932129205828
 31
0.0
  0
LINE
  5
138
  8
DEFAULT
 10
45.73823173562121
 20
184.9932129205828
 30
0.0
 11
47.82190521879154
 21
183.0706037125943
 31
0.0
  0
LINE
  5
139
  8
DEFAULT
 10
47.82190521879154
 20
183.0706037125943
 30
0.0
 11
49.86443047718642
 21
181.0939730831125
 31
0.0
  0
LINE
  5
13A
  8
DEFAULT
 10
49.86443047718642
 20
181.0939730831125
 30
0.0
 11
51.86613780193382
 21
179.0638511766212
 31
0.0
  0
LINE
  5
13B
  8
DEFAULT
 10
51.86613780193382
 20
179.0638511766212
 30
0.0
 11
53.8273574841617
 21
176.9807681376044
 31
0.0
  0
LINE
  5
13C
  8
DEFAULT
 10
53.8273574841617
 20
176.9807681376044
 30
0.0
 11
55.74841981499807
 21
174.8452541105459
 31
0.0
  0
LINE
  5
13D
  8
DEFAULT
 10
55.74841981499807
 20
174.8452541105459
 30
0.0
 11
57.62965508557089
 21
172.6578392399295
 31
0.0
  0
LINE
  5
13E
  8
DEFAULT
 10
57.62965508557089
 20
172.6578392399295
 30
0.0
 11
59.47139358700812
 21
170.4190536702392
 31
0.0
  0
LINE
  5
13F
  8
DEFAULT
 10
59.47139358700812
 20
170.4190536702392
 30
0.0
 11
61.27396561043776
 21
168.1294275459589
 31
0.0
  0
LINE
  5
140
  8
DEFAULT
 10
61.27396561043776
 20
168.1294275459589
 30
0.0
 11
63.03770144698775
 21
165.7894910115723
 31
0.0
  0
LINE
  5
141
  8
DEFAULT
 10
63.03770144698775
 20
165.7894910115723
 30
0.0
 11
65.617604760424
 21
162.1710707835588
 31
0.0
  0
LINE
  5
142
  8
DEFAULT
 10
65.617604760424
 20
162.1710707835588
 30
0.0
 11
66.86530283959947
 21
160.3228037006997
 31
0.0
  0
LINE
  5
143
  8
DEFAULT
 10
66.86530283959947
 20
160.3228037006997
 30
0.0
 11
68.07978394303392
 21
158.4502757880053
 31
0.0
  0
LINE
  5
144
  8
DEFAULT
 10
68.07978394303392
 20
158.4502757880053
 30
0.0
 11
69.25726212769297
 21
156.5548199075256
 31
0.0
  0
LINE
  5
145
  8
DEFAULT
 10
69.25726212769297
 20
156.5548199075256
 30
0.0
 11
70.39395145054218
 21
154.6377689213102
 31
0.0
  0
LINE
  5
146
  8
DEFAULT
 10
70.39395145054218
 20
154.6377689213102
 30
0.0
 11
71.48606596854717
 21
152.700455691409
 31
0.0
  0
LINE
  5
147
  8
DEFAULT
 10
71.48606596854717
 20
152.700455691409
 30
0.0
 11
72.5298197386735
 21
150.7442130798718
 31
0.0
  0
ARC
  5
148
  8
DEFAULT
 10
70.31010396271563
 20
149.5940557541273
 30
0.0
 40
2.5
 50
270.0000000000469
 51
27.39116835393761
  0
LINE
  5
149
  8
DEFAULT
 10
70.31010396271768
 20
147.0940557541273
 30
0.0
 11
56.97721668424197
 21
147.0940557541285
 31
0.0
  0
ARC
  5
14A
  8
DEFAULT
 10
56.97721668424197
 20
145.0940557541285
 30
0.0
 40
2.0
 50
90.0
 51
180.0
  0
LINE
  5
14B
  8
DEFAULT
 10
54.97721668424197
 20
145.0940557541285
 30
0.0
 11
54.97721668424197
 21
123.7779003094392
 31
0.0
  0
LINE
  5
14C
  8
DEFAULT
 10
54.97721668424197
 20
123.7779003094392
 30
0.0
 11
54.97721668424197
 21
102.4237141766725
 31
0.0
  0
ARC
  5
14D
  8
DEFAULT
 10
56.97721668424197
 20
102.4237141766725
 30
0.0
 40
2.0
 50
180.0
 51
270.0
  0
LINE
  5
14E
  8
DEFAULT
 10
56.97721668424197
 20
100.4237141766725
 30
0.0
 11
70.35979245653061
 21
100.4237141766725
 31
0.0
  0
ARC
  5
14F
  8
DEFAULT
 10
70.35979245653061
 20
97.92371417667255
 30
0.0
 40
2.5
 50
332.7583457544019
 51
90.0
  0
LINE
  5
150
  8
DEFAULT
 10
72.58250202247586
 20
96.77935313859837
 30
0.0
 11
71.5426986069007
 21
94.81855730027348
 31
0.0
  0
LINE
  5
151
  8
DEFAULT
 10
71.5426986069007
 20
94.81855730027348
 30
0.0
 11
70.45418592000905
 21
92.87689713806293
 31
0.0
  0
LINE
  5
152
  8
DEFAULT
 10
70.45418592000905
 20
92.87689713806293
 30
0.0
 11
69.32068235836462
 21
90.95572190392005
 31
0.0
  0
LINE
  5
153
  8
DEFAULT
 10
69.32068235836462
 20
90.95572190392005
 30
0.0
 11
68.14590631853108
 21
89.05638084979822
 31
0.0
  0
LINE
  5
154
  8
DEFAULT
 10
68.14590631853108
 20
89.05638084979822
 30
0.0
 11
66.93357619707213
 21
87.18022322765081
 31
0.0
  0
LINE
  5
155
  8
DEFAULT
 10
66.93357619707213
 20
87.18022322765081
 30
0.0
 11
65.68741039055146
 21
85.3285982894312
 31
0.0
  0
LINE
  5
156
  8
DEFAULT
 10
65.68741039055146
 20
85.3285982894312
 30
0.0
 11
63.1084453085797
 21
81.70434347258877
 31
0.0
  0
LINE
  5
157
  8
DEFAULT
 10
63.1084453085797
 20
81.70434347258877
 30
0.0
 11
61.34593254955665
 21
79.36426531741506
 31
0.0
  0
LINE
  5
158
  8
DEFAULT
 10
61.34593254955665
 20
79.36426531741506
 30
0.0
 11
59.54334814858554
 21
77.07493991265422
 31
0.0
  0
LINE
  5
159
  8
DEFAULT
 10
59.54334814858554
 20
77.07493991265422
 30
0.0
 11
57.70046866796832
 21
74.83690597310786
 31
0.0
  0
LINE
  5
15A
  8
DEFAULT
 10
57.70046866796832
 20
74.83690597310786
 30
0.0
 11
55.81707067000693
 21
72.65070221357769
 31
0.0
  0
LINE
  5
15B
  8
DEFAULT
 10
55.81707067000693
 20
72.65070221357769
 30
0.0
 11
53.8929307170033
 21
70.5168673488653
 31
0.0
  0
LINE
  5
15C
  8
DEFAULT
 10
53.8929307170033
 20
70.5168673488653
 30
0.0
 11
51.92782537125938
 21
68.43594009377237
 31
0.0
  0
LINE
  5
15D
  8
DEFAULT
 10
51.92782537125938
 20
68.43594009377237
 30
0.0
 11
49.92153119507711
 21
66.40845916310053
 31
0.0
  0
LINE
  5
15E
  8
DEFAULT
 10
49.92153119507711
 20
66.40845916310053
 30
0.0
 11
47.87382475075843
 21
64.43496327165143
 31
0.0
  0
LINE
  5
15F
  8
DEFAULT
 10
47.87382475075843
 20
64.43496327165143
 30
0.0
 11
45.78448260060529
 21
62.5159911342267
 31
0.0
  0
LINE
  5
160
  8
DEFAULT
 10
45.78448260060529
 20
62.5159911342267
 30
0.0
 11
43.65328130691962
 21
60.65208146562799
 31
0.0
  0
LINE
  5
161
  8
DEFAULT
 10
43.65328130691962
 20
60.65208146562799
 30
0.0
 11
41.47999743200337
 21
58.84377298065694
 31
0.0
  0
LINE
  5
162
  8
DEFAULT
 10
41.47999743200337
 20
58.84377298065694
 30
0.0
 11
39.26440753815847
 21
57.09160439411521
 31
0.0
  0
LINE
  5
163
  8
DEFAULT
 10
39.26440753815847
 20
57.09160439411521
 30
0.0
 11
37.00628818768687
 21
55.39611442080442
 31
0.0
  0
LINE
  5
164
  8
DEFAULT
 10
37.00628818768687
 20
55.39611442080442
 30
0.0
 11
34.70541594289051
 21
53.75784177552623
 31
0.0
  0
LINE
  5
165
  8
DEFAULT
 10
34.70541594289051
 20
53.75784177552623
 30
0.0
 11
32.36156736607133
 21
52.17732517308228
 31
0.0
  0
LINE
  5
166
  8
DEFAULT
 10
32.36156736607133
 20
52.17732517308228
 30
0.0
 11
29.97451901953127
 21
50.65510332827421
 31
0.0
  0
ARC
  5
167
  8
DEFAULT
 10
19.43834194463352
 20
67.65477899125892
 30
0.0
 40
20.00000000000697
 50
296.3297453499422
 51
301.7900944070712
  0
ARC
  5
168
  8
DEFAULT
 10
35.405657596114
 20
35.38955264947583
 30
0.0
 40
16.0
 50
116.3297453499565
 51
333.5641564145237
  0
ARC
  5
169
  8
DEFAULT
 10
67.64126094265976
 20
19.3625168385571
 30
0.0
 40
20.00000000000438
 50
148.0148098744487
 51
153.5641564145256
  0
LINE
  5
16A
  8
DEFAULT
 10
50.67756010418133
 20
29.95651768161821
 30
0.0
 11
52.20717617342904
 21
32.33747777435171
 31
0.0
  0
LINE
  5
16B
  8
DEFAULT
 10
52.20717617342904
 20
32.33747777435171
 30
0.0
 11
53.79452452035568
 21
34.67497742491828
 31
0.0
  0
LINE
  5
16C
  8
DEFAULT
 10
53.79452452035568
 20
34.67497742491828
 30
0.0
 11
55.43907500924169
 21
36.96934693763635
 31
0.0
  0
LINE
  5
16D
  8
DEFAULT
 10
55.43907500924169
 20
36.96934693763635
 30
0.0
 11
57.1402975043675
 21
39.22091661682435
 31
0.0
  0
LINE
  5
16E
  8
DEFAULT
 10
57.1402975043675
 20
39.22091661682435
 30
0.0
 11
58.89766187001351
 21
41.4300167668007
 31
0.0
  0
LINE
  5
16F
  8
DEFAULT
 10
58.89766187001351
 20
41.4300167668007
 30
0.0
 11
60.71063797046016
 21
43.59697769188381
 31
0.0
  0
LINE
  5
170
  8
DEFAULT
 10
60.71063797046016
 20
43.59697769188381
 30
0.0
 11
62.57869566998785
 21
45.72212969639211
 31
0.0
  0
LINE
  5
171
  8
DEFAULT
 10
62.57869566998785
 20
45.72212969639211
 30
0.0
 11
64.50130483287703
 21
47.80580308464401
 31
0.0
  0
LINE
  5
172
  8
DEFAULT
 10
64.50130483287703
 20
47.80580308464401
 30
0.0
 11
66.47793532340809
 21
49.84832816095793
 31
0.0
  0
LINE
  5
173
  8
DEFAULT
 10
66.47793532340809
 20
49.84832816095793
 30
0.0
 11
68.50805700586149
 21
51.85003522965232
 31
0.0
  0
LINE
  5
174
  8
DEFAULT
 10
68.50805700586149
 20
51.85003522965232
 30
0.0
 11
70.59113974451762
 21
53.81125459504555
 31
0.0
  0
LINE
  5
175
  8
DEFAULT
 10
70.59113974451762
 20
53.81125459504555
 30
0.0
 11
72.72665340365691
 21
55.73231656145609
 31
0.0
  0
LINE
  5
176
  8
DEFAULT
 10
72.72665340365691
 20
55.73231656145609
 30
0.0
 11
74.9140678475598
 21
57.61355143320232
 31
0.0
  0
LINE
  5
177
  8
DEFAULT
 10
74.9140678475598
 20
57.61355143320232
 30
0.0
 11
77.15285294050668
 21
59.4552895146027
 31
0.0
  0
LINE
  5
178
  8
DEFAULT
 10
77.15285294050668
 20
59.4552895146027
 30
0.0
 11
79.44247854677798
 21
61.25786110997561
 31
0.0
  0
LINE
  5
179
  8
DEFAULT
 10
79.44247854677798
 20
61.25786110997561
 30
0.0
 11
81.78241453065414
 21
63.0215965236395
 31
0.0
  0
LINE
  5
17A
  8
DEFAULT
 10
81.78241453065414
 20
63.0215965236395
 30
0.0
 11
84.16779551060611
 21
64.74254279970853
 31
0.0
  0
LINE
  5
17B
  8
DEFAULT
 10
84.16779551060611
 20
64.74254279970853
 30
0.0
 11
86.59969457551256
 21
66.41629907973338
 31
0.0
  0
LINE
  5
17C
  8
DEFAULT
 10
86.59969457551256
 20
66.41629907973338
 30
0.0
 11
89.0750105197098
 21
68.03405674647378
 31
0.0
  0
LINE
  5
17D
  8
DEFAULT
 10
89.0750105197098
 20
68.03405674647378
 30
0.0
 11
91.59064213753425
 21
69.58700718268949
 31
0.0
  0
LINE
  5
17E
  8
DEFAULT
 10
91.59064213753425
 20
69.58700718268949
 30
0.0
 11
94.14348822332224
 21
71.06634177114023
 31
0.0
  0
LINE
  5
17F
  8
DEFAULT
 10
94.14348822332224
 20
71.06634177114023
 30
0.0
 11
96.7304475714102
 21
72.46325189458571
 31
0.0
  0
LINE
  5
180
  8
DEFAULT
 10
96.7304475714102
 20
72.46325189458571
 30
0.0
 11
99.34841897613444
 21
73.76892893578571
 31
0.0
  0
LINE
  5
181
  8
DEFAULT
 10
99.34841897613444
 20
73.76892893578571
 30
0.0
 11
100.6680650729653
 21
74.38480235765604
 31
0.0
  0
LINE
  5
182
  8
DEFAULT
 10
100.6680650729653
 20
74.38480235765604
 30
0.0
 11
101.9943012318313
 21
74.97456427749991
 31
0.0
  0
LINE
  5
183
  8
DEFAULT
 10
101.9943012318313
 20
74.97456427749991
 30
0.0
 11
103.3267398020247
 21
75.53711361816227
 31
0.0
  0
LINE
  5
184
  8
DEFAULT
 10
103.3267398020247
 20
75.53711361816227
 30
0.0
 11
104.6649931328373
 21
76.07134930248807
 31
0.0
  0
LINE
  5
185
  8
DEFAULT
 10
104.6649931328373
 20
76.07134930248807
 30
0.0
 11
106.0086735735613
 21
76.57617025332232
 31
0.0
  0
LINE
  5
186
  8
DEFAULT
 10
106.0086735735613
 20
76.57617025332232
 30
0.0
 11
107.3573934734887
 21
77.05047539350996
 31
0.0
  0
LINE
  5
187
  8
DEFAULT
 10
107.3573934734887
 20
77.05047539350996
 30
0.0
 11
108.7107651819115
 21
77.49316364589595
 31
0.0
  0
LINE
  5
188
  8
DEFAULT
 10
108.7107651819115
 20
77.49316364589595
 30
0.0
 11
110.0684010481218
 21
77.90313393332525
 31
0.0
  0
LINE
  5
189
  8
DEFAULT
 10
110.0684010481218
 20
77.90313393332525
 30
0.0
 11
111.4299134214117
 21
78.27928517864285
 31
0.0
  0
LINE
  5
18A
  8
DEFAULT
 10
111.4299134214117
 20
78.27928517864285
 30
0.0
 11
112.7949146510732
 21
78.62051630469372
 31
0.0
  0
LINE
  5
18B
  8
DEFAULT
 10
112.7949146510732
 20
78.62051630469372
 30
0.0
 11
114.1630170863983
 21
78.92572623432281
 31
0.0
  0
LINE
  5
18C
  8
DEFAULT
 10
114.1630170863983
 20
78.92572623432281
 30
0.0
 11
115.533833076679
 21
79.19381389037508
 31
0.0
  0
LINE
  5
18D
  8
DEFAULT
 10
115.533833076679
 20
79.19381389037508
 30
0.0
 11
116.9069749712075
 21
79.42367819569552
 31
0.0
  0
LINE
  5
18E
  8
DEFAULT
 10
116.9069749712075
 20
79.42367819569552
 30
0.0
 11
118.2820551192758
 21
79.61421807312908
 31
0.0
  0
LINE
  5
18F
  8
DEFAULT
 10
118.2820551192758
 20
79.61421807312908
 30
0.0
 11
119.6586858701758
 21
79.76433244552072
 31
0.0
  0
LINE
  5
190
  8
DEFAULT
 10
119.6586858701758
 20
79.76433244552072
 30
0.0
 11
121.0364795731998
 21
79.87292023571544
 31
0.0
  0
LINE
  5
191
  8
DEFAULT
 10
121.0364795731998
 20
79.87292023571544
 30
0.0
 11
122.4150485776396
 21
79.93888036655818
 31
0.0
  0
LINE
  5
192
  8
DEFAULT
 10
122.4150485776396
 20
79.93888036655818
 30
0.0
 11
123.7940052327874
 21
79.9611117608939
 31
0.0
  0
LINE
  5
193
  8
DEFAULT
 10
123.7940052327874
 20
79.9611117608939
 30
0.0
 11
125.1755298790529
 21
79.93906593264023
 31
0.0
  0
LINE
  5
194
  8
DEFAULT
 10
125.1755298790529
 20
79.93906593264023
 30
0.0
 11
126.5566631705084
 21
79.87364746896552
 31
0.0
  0
LINE
  5
195
  8
DEFAULT
 10
126.5566631705084
 20
79.87364746896552
 30
0.0
 11
127.9370137523438
 21
79.765934902591
 31
0.0
  0
LINE
  5
196
  8
DEFAULT
 10
127.9370137523438
 20
79.765934902591
 30
0.0
 11
129.316190269749
 21
79.61700676623792
 31
0.0
  0
LINE
  5
197
  8
DEFAULT
 10
129.316190269749
 20
79.61700676623792
 30
0.0
 11
130.693801367914
 21
79.42794159262749
 31
0.0
  0
LINE
  5
198
  8
DEFAULT
 10
130.693801367914
 20
79.42794159262749
 30
0.0
 11
132.0694556920287
 21
79.19981791448095
 31
0.0
  0
LINE
  5
199
  8
DEFAULT
 10
132.0694556920287
 20
79.19981791448095
 30
0.0
 11
133.4427618872831
 21
78.9337142645195
 31
0.0
  0
LINE
  5
19A
  8
DEFAULT
 10
133.4427618872831
 20
78.9337142645195
 30
0.0
 11
134.8133285988671
 21
78.63070917546439
 31
0.0
  0
LINE
  5
19B
  8
DEFAULT
 10
134.8133285988671
 20
78.63070917546439
 30
0.0
 11
136.1807644719708
 21
78.29188118003684
 31
0.0
  0
LINE
  5
19C
  8
DEFAULT
 10
136.1807644719708
 20
78.29188118003684
 30
0.0
 11
137.544678151784
 21
77.91830881095808
 31
0.0
  0
LINE
  5
19D
  8
DEFAULT
 10
137.544678151784
 20
77.91830881095808
 30
0.0
 11
138.9046782834966
 21
77.51107060094934
 31
0.0
  0
LINE
  5
19E
  8
DEFAULT
 10
138.9046782834966
 20
77.51107060094934
 30
0.0
 11
140.2603735122987
 21
77.07124508273185
 31
0.0
  0
LINE
  5
19F
  8
DEFAULT
 10
140.2603735122987
 20
77.07124508273185
 30
0.0
 11
141.6113724833801
 21
76.59991078902681
 31
0.0
  0
LINE
  5
1A0
  8
DEFAULT
 10
141.6113724833801
 20
76.59991078902681
 30
0.0
 11
142.9572838419308
 21
76.09814625255547
 31
0.0
  0
LINE
  5
1A1
  8
DEFAULT
 10
142.9572838419308
 20
76.09814625255547
 30
0.0
 11
144.2977162331408
 21
75.56703000603906
 31
0.0
  0
LINE
  5
1A2
  8
DEFAULT
 10
144.2977162331408
 20
75.56703000603906
 30
0.0
 11
145.6322783022
 21
75.00764058219879
 31
0.0
  0
LINE
  5
1A3
  8
DEFAULT
 10
145.6322783022
 20
75.00764058219879
 30
0.0
 11
146.9605786942984
 21
74.4210565137559
 31
0.0
  0
LINE
  5
1A4
  8
DEFAULT
 10
146.9605786942984
 20
74.4210565137559
 30
0.0
 11
148.2822260546259
 21
73.8083563334316
 31
0.0
  0
LINE
  5
1A5
  8
DEFAULT
 10
148.2822260546259
 20
73.8083563334316
 30
0.0
 11
150.903996260728
 21
72.50892176802373
 31
0.0
  0
LINE
  5
1A6
  8
DEFAULT
 10
150.903996260728
 20
72.50892176802373
 30
0.0
 11
153.4944580820259
 21
71.117965147745
 31
0.0
  0
LINE
  5
1A7
  8
DEFAULT
 10
153.4944580820259
 20
71.117965147745
 30
0.0
 11
156.0504806800392
 21
69.64411473436519
 31
0.0
  0
LINE
  5
1A8
  8
DEFAULT
 10
156.0504806800392
 20
69.64411473436519
 30
0.0
 11
158.5689332162873
 21
68.09599878965413
 31
0.0
  0
LINE
  5
1A9
  8
DEFAULT
 10
158.5689332162873
 20
68.09599878965413
 30
0.0
 11
161.0466848522901
 21
66.48224557538165
 31
0.0
  0
LINE
  5
1AA
  8
DEFAULT
 10
161.0466848522901
 20
66.48224557538165
 30
0.0
 11
163.480604749567
 21
64.81148335331756
 31
0.0
  0
LINE
  5
1AB
  8
DEFAULT
 10
163.480604749567
 20
64.81148335331756
 30
0.0
 11
165.8675620696376
 21
63.09234038523164
 31
0.0
  0
LINE
  5
1AC
  8
DEFAULT
 10
165.8675620696376
 20
63.09234038523164
 30
0.0
 11
168.2076396743124
 21
61.32982804894909
 31
0.0
  0
LINE
  5
1AD
  8
DEFAULT
 10
168.2076396743124
 20
61.32982804894909
 30
0.0
 11
170.4969645612458
 21
59.52724407641962
 31
0.0
  0
LINE
  5
1AE
  8
DEFAULT
 10
170.4969645612458
 20
59.52724407641962
 30
0.0
 11
172.7349980243635
 21
57.68436501664521
 31
0.0
  0
LINE
  5
1AF
  8
DEFAULT
 10
172.7349980243635
 20
57.68436501664521
 30
0.0
 11
174.9212013575916
 21
55.80096741862781
 31
0.0
  0
LINE
  5
1B0
  8
DEFAULT
 10
174.9212013575916
 20
55.80096741862781
 30
0.0
 11
177.0550358548558
 21
53.8768278313694
 31
0.0
  0
LINE
  5
1B1
  8
DEFAULT
 10
177.0550358548558
 20
53.8768278313694
 30
0.0
 11
179.1359628100822
 21
51.91172280387194
 31
0.0
  0
LINE
  5
1B2
  8
DEFAULT
 10
179.1359628100822
 20
51.91172280387194
 30
0.0
 11
181.1634435171965
 21
49.90542888513741
 31
0.0
  0
LINE
  5
1B3
  8
DEFAULT
 10
181.1634435171965
 20
49.90542888513741
 30
0.0
 11
183.1369392701246
 21
47.85772262416778
 31
0.0
  0
LINE
  5
1B4
  8
DEFAULT
 10
183.1369392701246
 20
47.85772262416778
 30
0.0
 11
185.0559113627924
 21
45.76838056996502
 31
0.0
  0
LINE
  5
1B5
  8
DEFAULT
 10
185.0559113627924
 20
45.76838056996502
 30
0.0
 11
186.9198210891258
 21
43.63717927153108
 31
0.0
  0
LINE
  5
1B6
  8
DEFAULT
 10
186.9198210891258
 20
43.63717927153108
 30
0.0
 11
188.7281297430506
 21
41.46389527786796
 31
0.0
  0
LINE
  5
1B7
  8
DEFAULT
 10
188.7281297430506
 20
41.46389527786796
 30
0.0
 11
190.4802986184928
 21
39.24830513797762
 31
0.0
  0
LINE
  5
1B8
  8
DEFAULT
 10
190.4802986184928
 20
39.24830513797762
 30
0.0
 11
192.1757890093781
 21
36.99018540086202
 31
0.0
  0
LINE
  5
1B9
  8
DEFAULT
 10
192.1757890093781
 20
36.99018540086202
 30
0.0
 11
193.8140622096326
 21
34.68931261552314
 31
0.0
  0
LINE
  5
1BA
  8
DEFAULT
 10
193.8140622096326
 20
34.68931261552314
 30
0.0
 11
195.394579513182
 21
32.34546333096293
 31
0.0
  0
LINE
  5
1BB
  8
DEFAULT
 10
195.394579513182
 20
32.34546333096293
 30
0.0
 11
196.9168022139522
 21
29.95841409618339
 31
0.0
  0
LINE
  5
1BC
  8
LAYER_01
 10
118.2940052327874
 20
113.7779003084689
 30
0.0
 11
118.2940052327874
 21
133.7779003084689
 31
0.0
  0
LINE
  5
1BD
  8
LAYER_01
 10
118.2940052327874
 20
133.7779003084689
 30
0.0
 11
115.2940052327874
 21
133.7779003084689
 31
0.0
  0
LINE
  5
1BE
  8
LAYER_01
 10
115.2940052327874
 20
133.7779003084689
 30
0.0
 11
115.2940052327874
 21
113.7779003084689
 31
0.0
  0
LINE
  5
1BF
  8
LAYER_01
 10
115.2940052327874
 20
113.7779003084689
 30
0.0
 11
118.2940052327874
 21
113.7779003084689
 31
0.0
  0
ARC
  5
1C0
  8
LAYER_01
 10
27.00183443647893
 20
211.6662479461127
 30
0.0
 40
1.000000000000085
 50
269.9999999999992
 51
354.2608295227307
  0
ARC
  5
1C1
  8
LAYER_01
 10
22.02689725095183
 20
212.1662479461129
 30
0.0
 40
5.99999999999401
 50
354.2608295227247
 51
5.739170477270026
  0
ARC
  5
1C2
  8
LAYER_01
 10
27.00183443647893
 20
212.6662479461127
 30
0.0
 40
0.9999999999999614
 50
5.739170477263408
 51
89.99999999999675
  0
LINE
  5
1C3
  8
LAYER_01
 10
27.00183443647893
 20
213.6662479461127
 30
0.0
 11
24.5831377644945
 21
213.6662479461127
 31
0.0
  0
ARC
  5
1C4
  8
LAYER_01
 10
24.5831377644945
 20
212.6662479461127
 30
0.0
 40
1.0
 50
90.0
 51
179.9999999999967
  0
LINE
  5
1C5
  8
LAYER_01
 10
23.5831377644945
 20
212.6662479461127
 30
0.0
 11
23.5831377644945
 21
211.6662479461127
 31
0.0
  0
ARC
  5
1C6
  8
LAYER_01
 10
24.5831377644945
 20
211.6662479461127
 30
0.0
 40
1.0
 50
179.9999999999967
 51
270.0000000000065
  0
LINE
  5
1C7
  8
LAYER_01
 10
24.5831377644945
 20
210.6662479461127
 30
0.0
 11
27.00183443647893
 21
210.6662479461127
 31
0.0
  0
LINE
  5
1C8
  8
LAYER_01
 10
50.52405891112312
 20
198.4883901511259
 30
0.0
 11
49.07961150626443
 21
197.1044104312384
 31
0.0
  0
ARC
  5
1C9
  8
LAYER_01
 10
49.42552739611483
 20
196.7433810735001
 30
0.0
 40
0.5
 50
133.7752855834457
 51
224.9999999999994
  0
LINE
  5
1CA
  8
LAYER_01
 10
49.0719740055215
 20
196.3898276829068
 30
0.0
 11
50.8774524763412
 21
194.5843492120871
 31
0.0
  0
LINE
  5
1CB
  8
LAYER_01
 10
50.8774524763412
 20
194.5843492120871
 30
0.0
 11
52.64521942930742
 21
192.8165822591209
 31
0.0
  0
ARC
  5
1CC
  8
LAYER_01
 10
52.99877281990075
 20
193.170135649714
 30
0.0
 40
0.5
 50
225.0
 51
315.0
  0
LINE
  5
1CD
  8
LAYER_01
 10
53.35232621049408
 20
192.8165822591209
 30
0.0
 11
54.76653977286742
 21
194.230795821494
 31
0.0
  0
ARC
  5
1CE
  8
LAYER_01
 10
54.41298638227408
 20
194.5843492120871
 30
0.0
 40
0.5
 50
315.0
 51
44.99999999999942
  0
LINE
  5
1CF
  8
LAYER_01
 10
54.76653977286742
 20
194.9379026026804
 30
0.0
 11
51.22352819156686
 21
198.4809141839808
 31
0.0
  0
ARC
  5
1D0
  8
LAYER_01
 10
50.86997480097352
 20
198.1273607933877
 30
0.0
 40
0.5000000000000041
 50
45.0
 51
133.7752855834515
  0
LINE
  5
1D1
  8
LAYER_01
 10
28.52974747942017
 20
216.2503742825713
 30
0.0
 11
31.35817460416638
 21
219.0788014073175
 31
0.0
  0
LINE
  5
1D2
  8
LAYER_01
 10
31.35817460416638
 20
219.0788014073175
 30
0.0
 11
28.52974747942017
 21
221.9072285320636
 31
0.0
  0
LINE
  5
1D3
  8
LAYER_01
 10
28.52974747942017
 20
221.9072285320636
 30
0.0
 11
25.70132035467395
 21
219.0788014073175
 31
0.0
  0
LINE
  5
1D4
  8
LAYER_01
 10
25.70132035467395
 20
219.0788014073175
 30
0.0
 11
28.52974747942017
 21
216.2503742825713
 31
0.0
  0
LINE
  5
1D5
  8
LAYER_01
 10
44.43965005611744
 20
200.3404717058741
 30
0.0
 11
47.26807718086366
 21
203.1688988306202
 31
0.0
  0
LINE
  5
1D6
  8
LAYER_01
 10
47.26807718086366
 20
203.1688988306202
 30
0.0
 11
44.43965005611744
 21
205.9973259553664
 31
0.0
  0
LINE
  5
1D7
  8
LAYER_01
 10
44.43965005611744
 20
205.9973259553664
 30
0.0
 11
41.61122293137123
 21
203.1688988306203
 31
0.0
  0
LINE
  5
1D8
  8
LAYER_01
 10
41.61122293137123
 20
203.1688988306203
 30
0.0
 11
44.43965005611744
 21
200.3404717058741
 31
0.0
  0
CIRCLE
  5
1D9
  8
LAYER_01
 10
35.40565757282411
 20
212.1662479461127
 30
0.0
 40
4.5
  0
CIRCLE
  5
1DA
  8
LAYER_01
 10
212.1823528694606
 20
212.1662479694025
 30
0.0
 40
4.5
  0
LINE
  5
1DB
  8
LAYER_01
 10
200.356576629222
 20
203.1322554861092
 30
0.0
 11
203.1850037539682
 21
200.303828361363
 31
0.0
  0
LINE
  5
1DC
  8
LAYER_01
 10
203.1850037539682
 20
200.303828361363
 30
0.0
 11
206.0134308787144
 21
203.1322554861092
 31
0.0
  0
LINE
  5
1DD
  8
LAYER_01
 10
206.0134308787144
 20
203.1322554861092
 30
0.0
 11
203.1850037539682
 21
205.9606826108554
 31
0.0
  0
LINE
  5
1DE
  8
LAYER_01
 10
203.1850037539682
 20
205.9606826108554
 30
0.0
 11
200.356576629222
 21
203.1322554861092
 31
0.0
  0
LINE
  5
1DF
  8
LAYER_01
 10
216.2664792059193
 20
219.0421580628065
 30
0.0
 11
219.0949063306655
 21
216.2137309380603
 31
0.0
  0
LINE
  5
1E0
  8
LAYER_01
 10
219.0949063306655
 20
216.2137309380603
 30
0.0
 11
221.9233334554117
 21
219.0421580628065
 31
0.0
  0
LINE
  5
1E1
  8
LAYER_01
 10
221.9233334554117
 20
219.0421580628065
 30
0.0
 11
219.0949063306655
 21
221.8705851875527
 31
0.0
  0
LINE
  5
1E2
  8
LAYER_01
 10
219.0949063306655
 20
221.8705851875527
 30
0.0
 11
216.2664792059193
 21
219.0421580628065
 31
0.0
  0
LINE
  5
1E3
  8
LAYER_01
 10
198.5044950744739
 20
197.0478466311035
 30
0.0
 11
197.1205153545864
 21
198.492294035962
 31
0.0
  0
ARC
  5
1E4
  8
LAYER_01
 10
196.7594859968483
 20
198.1463781461116
 30
0.0
 40
0.5
 50
43.77528558344632
 51
135.0
  0
LINE
  5
1E5
  8
LAYER_01
 10
196.405932606255
 20
198.4999315367049
 30
0.0
 11
194.6004541354353
 21
196.6944530658852
 31
0.0
  0
LINE
  5
1E6
  8
LAYER_01
 10
194.6004541354353
 20
196.6944530658855
 30
0.0
 11
192.832687182469
 21
194.926686112919
 31
0.0
  0
ARC
  5
1E7
  8
LAYER_01
 10
193.1862405730619
 20
194.5731327223257
 30
0.0
 40
0.5
 50
135.0
 51
225.0
  0
LINE
  5
1E8
  8
LAYER_01
 10
192.832687182469
 20
194.2195793317323
 30
0.0
 11
194.2469007448419
 21
192.8053657693592
 31
0.0
  0
ARC
  5
1E9
  8
LAYER_01
 10
194.6004541354353
 20
193.1589191599526
 30
0.0
 40
0.5
 50
225.0
 51
315.0
  0
LINE
  5
1EA
  8
LAYER_01
 10
194.9540075260286
 20
192.8053657693592
 30
0.0
 11
198.4970191073287
 21
196.3483773506598
 31
0.0
  0
ARC
  5
1EB
  8
LAYER_01
 10
198.1434657167358
 20
196.7019307412529
 30
0.0
 40
0.5000000000000041
 50
315.0
 51
43.77528558345092
  0
CIRCLE
  5
1EC
  8
LAYER_01
 10
212.1823528927505
 20
35.38955267276577
 30
0.0
 40
4.5
  0
LINE
  5
1ED
  8
LAYER_01
 10
203.1483604094572
 20
47.21532891300444
 30
0.0
 11
200.3199332847109
 21
44.38690178825823
 31
0.0
  0
LINE
  5
1EE
  8
LAYER_01
 10
200.3199332847109
 20
44.38690178825823
 30
0.0
 11
203.1483604094572
 21
41.55847466351202
 31
0.0
  0
LINE
  5
1EF
  8
LAYER_01
 10
203.1483604094572
 20
41.55847466351202
 30
0.0
 11
205.9767875342034
 21
44.38690178825823
 31
0.0
  0
LINE
  5
1F0
  8
LAYER_01
 10
205.9767875342034
 20
44.38690178825823
 30
0.0
 11
203.1483604094572
 21
47.21532891300444
 31
0.0
  0
LINE
  5
1F1
  8
LAYER_01
 10
219.0582629861544
 20
31.30542633630699
 30
0.0
 11
216.2298358614082
 21
28.47699921156089
 31
0.0
  0
LINE
  5
1F2
  8
LAYER_01
 10
216.2298358614082
 20
28.47699921156089
 30
0.0
 11
219.0582629861544
 21
25.6485720868148
 31
0.0
  0
LINE
  5
1F3
  8
LAYER_01
 10
219.0582629861544
 20
25.6485720868148
 30
0.0
 11
221.8866901109006
 21
28.47699921156078
 31
0.0
  0
LINE
  5
1F4
  8
LAYER_01
 10
221.8866901109006
 20
28.47699921156078
 30
0.0
 11
219.0582629861544
 21
31.30542633630699
 31
0.0
  0
LINE
  5
1F5
  8
LAYER_01
 10
197.0639515544515
 20
49.06741046775255
 30
0.0
 11
198.5083989593102
 21
50.45139018763984
 31
0.0
  0
ARC
  5
1F6
  8
LAYER_01
 10
198.1624830694598
 20
50.81241954537836
 30
0.0
 40
0.5
 50
313.7752855834458
 51
44.99999999999942
  0
LINE
  5
1F7
  8
LAYER_01
 10
198.5160364600531
 20
51.16597293597147
 30
0.0
 11
196.7105579892334
 21
52.97145140679118
 31
0.0
  0
LINE
  5
1F8
  8
LAYER_01
 10
196.7105579892334
 20
52.97145140679118
 30
0.0
 11
194.9427910362672
 21
54.73921835975761
 31
0.0
  0
ARC
  5
1F9
  8
LAYER_01
 10
194.5892376456738
 20
54.38566496916428
 30
0.0
 40
0.5
 50
45.0
 51
135.0
  0
LINE
  5
1FA
  8
LAYER_01
 10
194.2356842550805
 20
54.73921835975761
 30
0.0
 11
192.8214706927072
 21
53.32500479738451
 31
0.0
  0
ARC
  5
1FB
  8
LAYER_01
 10
193.1750240833005
 20
52.97145140679118
 30
0.0
 40
0.5
 50
135.0
 51
224.9999999999994
  0
LINE
  5
1FC
  8
LAYER_01
 10
192.8214706927072
 20
52.61789801619807
 30
0.0
 11
196.3644822740077
 21
49.07488643489751
 31
0.0
  0
ARC
  5
1FD
  8
LAYER_01
 10
196.7180356646011
 20
49.42843982549084
 30
0.0
 40
0.5000000000000041
 50
225.0
 51
313.7752855834503
  0
CIRCLE
  5
1FE
  8
LAYER_01
 10
35.405657596114
 20
35.38955264947577
 30
0.0
 40
4.5
  0
LINE
  5
1FF
  8
LAYER_01
 10
47.23143383635261
 20
44.42354513276928
 30
0.0
 11
44.40300671160639
 21
47.25197225751549
 31
0.0
  0
LINE
  5
200
  8
LAYER_01
 10
44.40300671160639
 20
47.25197225751549
 30
0.0
 11
41.57457958686018
 21
44.42354513276928
 31
0.0
  0
LINE
  5
201
  8
LAYER_01
 10
41.57457958686018
 20
44.42354513276928
 30
0.0
 11
44.40300671160639
 21
41.59511800802306
 31
0.0
  0
LINE
  5
202
  8
LAYER_01
 10
44.40300671160639
 20
41.59511800802306
 30
0.0
 11
47.23143383635261
 21
44.42354513276928
 31
0.0
  0
LINE
  5
203
  8
LAYER_01
 10
31.32153125965533
 20
28.51364255607194
 30
0.0
 11
28.49310413490912
 21
31.34206968081804
 31
0.0
  0
LINE
  5
204
  8
LAYER_01
 10
28.49310413490912
 20
31.34206968081804
 30
0.0
 11
25.6646770101629
 21
28.51364255607194
 31
0.0
  0
LINE
  5
205
  8
LAYER_01
 10
25.6646770101629
 20
28.51364255607194
 30
0.0
 11
28.49310413490912
 21
25.68521543132573
 31
0.0
  0
LINE
  5
206
  8
LAYER_01
 10
28.49310413490912
 20
25.68521543132573
 30
0.0
 11
31.32153125965533
 21
28.51364255607194
 31
0.0
  0
LINE
  5
207
  8
LAYER_01
 10
49.08351539110072
 20
50.50795398777495
 30
0.0
 11
50.46749511098824
 21
49.06350658291626
 31
0.0
  0
ARC
  5
208
  8
LAYER_01
 10
50.8285244687263
 20
49.40942247276666
 30
0.0
 40
0.5
 50
223.7752855834451
 51
314.9999999999989
  0
LINE
  5
209
  8
LAYER_01
 10
51.18207785931963
 20
49.05586908217356
 30
0.0
 11
52.98755633013934
 21
50.86134755299304
 31
0.0
  0
LINE
  5
20A
  8
LAYER_01
 10
52.98755633013934
 20
50.86134755299304
 30
0.0
 11
54.75532328310555
 21
52.62911450595948
 31
0.0
  0
ARC
  5
20B
  8
LAYER_01
 10
54.40176989251268
 20
52.98266789655258
 30
0.0
 40
0.5
 50
315.0
 51
45.0
  0
LINE
  5
20C
  8
LAYER_01
 10
54.75532328310555
 20
53.33622128714592
 30
0.0
 11
53.34110972073267
 21
54.75043484951902
 31
0.0
  0
ARC
  5
20D
  8
LAYER_01
 10
52.98755633013934
 20
54.39688145892569
 30
0.0
 40
0.5
 50
45.0
 51
134.9999999999989
  0
LINE
  5
20E
  8
LAYER_01
 10
52.63400293954601
 20
54.75043484951902
 30
0.0
 11
49.0909913582459
 21
51.20742326821869
 31
0.0
  0
ARC
  5
20F
  8
LAYER_01
 10
49.44454474883878
 20
50.85386987762536
 30
0.0
 40
0.5000000000000041
 50
135.0
 51
223.7752855834509
  0
ARC
  5
210
  8
LAYER_01
 10
223.0048727010801
 20
35.88955267276577
 30
0.0
 40
1.0
 50
359.9999999999968
 51
90.00000000000651
  0
LINE
  5
211
  8
LAYER_01
 10
223.0048727010801
 20
36.88955267276583
 30
0.0
 11
220.5861760290957
 21
36.88955267276583
 31
0.0
  0
ARC
  5
212
  8
LAYER_01
 10
220.5861760290957
 20
35.88955267276572
 30
0.0
 40
1.000000000000057
 50
89.99999999999837
 51
174.2608295227323
  0
ARC
  5
213
  8
LAYER_01
 10
225.5611132146214
 20
35.38955267276503
 30
0.0
 40
5.999999999992665
 50
174.2608295227195
 51
185.7391704772669
  0
ARC
  5
214
  8
LAYER_01
 10
220.5861760290957
 20
34.88955267276566
 30
0.0
 40
0.9999999999999614
 50
185.7391704772633
 51
269.9999999999968
  0
LINE
  5
215
  8
LAYER_01
 10
220.5861760290957
 20
33.88955267276572
 30
0.0
 11
223.0048727010801
 21
33.88955267276577
 31
0.0
  0
ARC
  5
216
  8
LAYER_01
 10
223.0048727010801
 20
34.88955267276577
 30
0.0
 40
1.0
 50
270.0
 51
359.9999999999968
  0
LINE
  5
217
  8
LAYER_01
 10
224.0048727010801
 20
34.88955267276572
 30
0.0
 11
224.0048727010801
 21
35.88955267276572
 31
0.0
  0
LINE
  5
218
  8
LAYER_01
 10
44.05196006541291
 20
210.6662479461127
 30
0.0
 11
46.47065673739712
 21
210.6662479461124
 31
0.0
  0
ARC
  5
219
  8
LAYER_01
 10
46.47065673739735
 20
211.6662479461124
 30
0.0
 40
1.0
 50
269.9999999999935
 51
359.9999999999951
  0
LINE
  5
21A
  8
LAYER_01
 10
47.47065673739689
 20
211.6662479461124
 30
0.0
 11
47.47065673739735
 21
212.6662479461125
 31
0.0
  0
ARC
  5
21B
  8
LAYER_01
 10
46.47065673739735
 20
212.6662479461127
 30
0.0
 40
1.0
 50
359.9999999999951
 51
90.0
  0
LINE
  5
21C
  8
LAYER_01
 10
46.47065673739735
 20
213.6662479461127
 30
0.0
 11
44.05196006541246
 21
213.6662479461127
 31
0.0
  0
ARC
  5
21D
  8
LAYER_01
 10
44.05196006541246
 20
212.6662479461128
 30
0.0
 40
0.9999999999998153
 50
90.0
 51
174.2608295227456
  0
ARC
  5
21E
  8
LAYER_01
 10
49.02689725093728
 20
212.1662479461148
 30
0.0
 40
5.999999999991521
 50
174.2608295227467
 51
185.7391704772964
  0
ARC
  5
21F
  8
LAYER_01
 10
44.05196006541314
 20
211.6662479461124
 30
0.0
 40
0.9999999999999599
 50
185.7391704772552
 51
269.999999999987
  0
LINE
  5
220
  8
LAYER_01
 10
64.97721668424197
 20
116.4237141766725
 30
0.0
 11
64.97721668424197
 21
108.4237141766725
 31
0.0
  0
LINE
  5
221
  8
LAYER_01
 10
64.97721668424197
 20
108.4237141766725
 30
0.0
 11
74.97721668424197
 21
108.4237141766725
 31
0.0
  0
LINE
  5
222
  8
LAYER_01
 10
74.97721668424197
 20
108.4237141766725
 30
0.0
 11
74.97721668424197
 21
116.4237141766725
 31
0.0
  0
LINE
  5
223
  8
LAYER_01
 10
74.97721668424197
 20
116.4237141766725
 30
0.0
 11
64.97721668424197
 21
116.4237141766725
 31
0.0
  0
LINE
  5
224
  8
LAYER_01
 10
64.97721668424197
 20
139.0940557541273
 30
0.0
 11
64.97721668424197
 21
131.0940557541273
 31
0.0
  0
LINE
  5
225
  8
LAYER_01
 10
64.97721668424197
 20
131.0940557541273
 30
0.0
 11
74.97721668424197
 21
131.0940557541273
 31
0.0
  0
LINE
  5
226
  8
LAYER_01
 10
74.97721668424197
 20
131.0940557541273
 30
0.0
 11
74.97721668424197
 21
139.0940557541273
 31
0.0
  0
LINE
  5
227
  8
LAYER_01
 10
74.97721668424197
 20
139.0940557541273
 30
0.0
 11
64.97721668424197
 21
139.0940557541273
 31
0.0
  0
LINE
  5
228
  8
LAYER_01
 10
182.6107937813329
 20
108.461744864751
 30
0.0
 11
182.6107937813329
 21
116.461744864751
 31
0.0
  0
LINE
  5
229
  8
LAYER_01
 10
182.6107937813329
 20
116.461744864751
 30
0.0
 11
172.6107937813329
 21
116.461744864751
 31
0.0
  0
LINE
  5
22A
  8
LAYER_01
 10
172.6107937813329
 20
116.461744864751
 30
0.0
 11
172.6107937813329
 21
108.461744864751
 31
0.0
  0
LINE
  5
22B
  8
LAYER_01
 10
172.6107937813329
 20
108.461744864751
 30
0.0
 11
182.6107937813329
 21
108.461744864751
 31
0.0
  0
LINE
  5
22C
  8
LAYER_01
 10
182.6107937813329
 20
131.1320864422058
 30
0.0
 11
182.6107937813329
 21
139.1320864422058
 31
0.0
  0
LINE
  5
22D
  8
LAYER_01
 10
182.6107937813329
 20
139.1320864422058
 30
0.0
 11
172.6107937813329
 21
139.1320864422058
 31
0.0
  0
LINE
  5
22E
  8
LAYER_01
 10
172.6107937813329
 20
139.1320864422058
 30
0.0
 11
172.6107937813329
 21
131.1320864422058
 31
0.0
  0
LINE
  5
22F
  8
LAYER_01
 10
172.6107937813329
 20
131.1320864422058
 30
0.0
 11
182.6107937813329
 21
131.1320864422058
 31
0.0
  0
LINE
  5
230
  8
DEFAULT
 10
273.9829604795933
 20
65.54787914272956
 30
0.0
 11
273.9829604795933
 21
61.74787914272983
 31
0.0
  0
LINE
  5
231
  8
DEFAULT
 10
273.9829604795933
 20
61.74787914272983
 30
0.0
 11
262.9829604795933
 21
61.74787914272983
 31
0.0
  0
LINE
  5
232
  8
DEFAULT
 10
262.9829604795933
 20
61.74787914272983
 30
0.0
 11
222.9829604795933
 21
61.74787914272983
 31
0.0
  0
LINE
  5
233
  8
DEFAULT
 10
222.9829604795933
 20
61.74787914272983
 30
0.0
 11
220.9829604795933
 21
61.74787914272983
 31
0.0
  0
ARC
  5
234
  8
DEFAULT
 10
220.9829604795933
 20
64.74787914272983
 30
0.0
 40
3.0
 50
179.9999999999913
 51
270.0
  0
LINE
  5
235
  8
DEFAULT
 10
217.9829604795933
 20
64.74787914273028
 30
0.0
 11
217.9829604795933
 21
120.7628791427297
 31
0.0
  0
LINE
  5
236
  8
DEFAULT
 10
217.9829604795933
 20
120.7628791427297
 30
0.0
 11
220.9829604795933
 21
120.7628791427297
 31
0.0
  0
LINE
  5
237
  8
DEFAULT
 10
220.9829604795933
 20
120.7628791427297
 30
0.0
 11
220.9829604795933
 21
124.5628791427296
 31
0.0
  0
LINE
  5
238
  8
DEFAULT
 10
220.9829604795933
 20
124.5628791427296
 30
0.0
 11
220.9829604795933
 21
128.3628791427296
 31
0.0
  0
LINE
  5
239
  8
DEFAULT
 10
220.9829604795933
 20
128.3628791427296
 30
0.0
 11
217.9829604795933
 21
128.3628791427296
 31
0.0
  0
LINE
  5
23A
  8
DEFAULT
 10
217.9829604795933
 20
128.3628791427296
 30
0.0
 11
217.9829604795933
 21
184.3778791427297
 31
0.0
  0
ARC
  5
23B
  8
DEFAULT
 10
220.9829604795933
 20
184.3778791427299
 30
0.0
 40
3.0
 50
90.0000000000038
 51
180.0000000000043
  0
LINE
  5
23C
  8
DEFAULT
 10
220.9829604795928
 20
187.3778791427299
 30
0.0
 11
222.9829604795933
 21
187.3778791427299
 31
0.0
  0
LINE
  5
23D
  8
DEFAULT
 10
222.9829604795933
 20
187.3778791427299
 30
0.0
 11
262.9829604795933
 21
187.3778791427299
 31
0.0
  0
LINE
  5
23E
  8
DEFAULT
 10
262.9829604795933
 20
187.3778791427299
 30
0.0
 11
273.9829604795933
 21
187.3778791427299
 31
0.0
  0
LINE
  5
23F
  8
DEFAULT
 10
273.9829604795933
 20
187.3778791427299
 30
0.0
 11
273.9829604795933
 21
183.5778791427297
 31
0.0
  0
LINE
  5
240
  8
DEFAULT
 10
273.9829604795933
 20
183.5778791427297
 30
0.0
 11
281.9829604795933
 21
183.5778791427297
 31
0.0
  0
LINE
  5
241
  8
DEFAULT
 10
281.9829604795933
 20
183.5778791427297
 30
0.0
 11
281.9829604795933
 21
173.1778791427296
 31
0.0
  0
LINE
  5
242
  8
DEFAULT
 10
281.9829604795933
 20
173.1778791427296
 30
0.0
 11
273.9829604795933
 21
173.1778791427296
 31
0.0
  0
LINE
  5
243
  8
DEFAULT
 10
273.9829604795933
 20
173.1778791427296
 30
0.0
 11
273.9829604795933
 21
169.3778791427299
 31
0.0
  0
LINE
  5
244
  8
DEFAULT
 10
273.9829604795933
 20
169.3778791427299
 30
0.0
 11
262.9829604795933
 21
169.3778791427299
 31
0.0
  0
LINE
  5
245
  8
DEFAULT
 10
262.9829604795933
 20
169.3778791427299
 30
0.0
 11
234.9829604795933
 21
169.3778791427299
 31
0.0
  0
ARC
  5
246
  8
DEFAULT
 10
234.9829604795933
 20
164.3778791427299
 30
0.0
 40
5.0
 50
90.0
 51
180.0
  0
LINE
  5
247
  8
DEFAULT
 10
229.9829604795933
 20
164.3778791427299
 30
0.0
 11
229.9829604795933
 21
162.0628791427299
 31
0.0
  0
LINE
  5
248
  8
DEFAULT
 10
229.9829604795933
 20
162.0628791427299
 30
0.0
 11
229.9829604795933
 21
157.0628791427299
 31
0.0
  0
LINE
  5
249
  8
DEFAULT
 10
229.9829604795933
 20
157.0628791427299
 30
0.0
 11
229.9829604795933
 21
128.3628791427296
 31
0.0
  0
LINE
  5
24A
  8
DEFAULT
 10
229.9829604795933
 20
128.3628791427296
 30
0.0
 11
229.9829604795933
 21
120.7628791427297
 31
0.0
  0
LINE
  5
24B
  8
DEFAULT
 10
229.9829604795933
 20
120.7628791427297
 30
0.0
 11
229.9829604795933
 21
92.06287914272988
 31
0.0
  0
LINE
  5
24C
  8
DEFAULT
 10
229.9829604795933
 20
92.06287914272988
 30
0.0
 11
229.9829604795933
 21
87.06287914272988
 31
0.0
  0
LINE
  5
24D
  8
DEFAULT
 10
229.9829604795933
 20
87.06287914272988
 30
0.0
 11
229.9829604795933
 21
84.74787914273006
 31
0.0
  0
ARC
  5
24E
  8
DEFAULT
 10
234.9829604795933
 20
84.74787914272983
 30
0.0
 40
5.0
 50
179.9999999999974
 51
270.0
  0
LINE
  5
24F
  8
DEFAULT
 10
234.9829604795933
 20
79.74787914272983
 30
0.0
 11
257.9829604795933
 21
79.74787914272983
 31
0.0
  0
LINE
  5
250
  8
DEFAULT
 10
257.9829604795933
 20
79.74787914272983
 30
0.0
 11
262.9829604795933
 21
79.74787914272983
 31
0.0
  0
LINE
  5
251
  8
DEFAULT
 10
262.9829604795933
 20
79.74787914272983
 30
0.0
 11
273.9829604795933
 21
79.74787914272983
 31
0.0
  0
LINE
  5
252
  8
DEFAULT
 10
273.9829604795933
 20
79.74787914272983
 30
0.0
 11
273.9829604795933
 21
75.94787914272965
 31
0.0
  0
LINE
  5
253
  8
DEFAULT
 10
273.9829604795933
 20
75.94787914272965
 30
0.0
 11
281.9829604795933
 21
75.94787914272965
 31
0.0
  0
LINE
  5
254
  8
DEFAULT
 10
281.9829604795933
 20
75.94787914272965
 30
0.0
 11
281.9829604795933
 21
65.54787914272956
 31
0.0
  0
LINE
  5
255
  8
DEFAULT
 10
281.9829604795933
 20
65.54787914272956
 30
0.0
 11
273.9829604795933
 21
65.54787914272956
 31
0.0
  0
LINE
  5
256
  8
DEFAULT
 10
241.5106949038794
 20
156.1251255931452
 30
0.0
 11
241.5106949038794
 21
159.925125593145
 31
0.0
  0
LINE
  5
257
  8
DEFAULT
 10
241.5106949038794
 20
159.925125593145
 30
0.0
 11
252.5106949038794
 21
159.925125593145
 31
0.0
  0
LINE
  5
258
  8
DEFAULT
 10
252.5106949038794
 20
159.925125593145
 30
0.0
 11
292.5106949038794
 21
159.925125593145
 31
0.0
  0
LINE
  5
259
  8
DEFAULT
 10
292.5106949038794
 20
159.925125593145
 30
0.0
 11
294.5106949038794
 21
159.925125593145
 31
0.0
  0
ARC
  5
25A
  8
DEFAULT
 10
294.5106949038794
 20
156.925125593145
 30
0.0
 40
3.0
 50
359.9999999999913
 51
90.0
  0
LINE
  5
25B
  8
DEFAULT
 10
297.5106949038794
 20
156.9251255931445
 30
0.0
 11
297.5106949038794
 21
100.9101255931451
 31
0.0
  0
LINE
  5
25C
  8
DEFAULT
 10
297.5106949038794
 20
100.9101255931451
 30
0.0
 11
294.5106949038794
 21
100.9101255931451
 31
0.0
  0
LINE
  5
25D
  8
DEFAULT
 10
294.5106949038794
 20
100.9101255931451
 30
0.0
 11
294.5106949038794
 21
97.11012559314511
 31
0.0
  0
LINE
  5
25E
  8
DEFAULT
 10
294.5106949038794
 20
97.11012559314511
 30
0.0
 11
294.5106949038794
 21
93.31012559314516
 31
0.0
  0
LINE
  5
25F
  8
DEFAULT
 10
294.5106949038794
 20
93.31012559314516
 30
0.0
 11
297.5106949038794
 21
93.31012559314522
 31
0.0
  0
LINE
  5
260
  8
DEFAULT
 10
297.5106949038794
 20
93.31012559314522
 30
0.0
 11
297.5106949038794
 21
37.29512559314506
 31
0.0
  0
ARC
  5
261
  8
DEFAULT
 10
294.5106949038794
 20
37.29512559314483
 30
0.0
 40
3.0
 50
270.0000000000032
 51
0.0000000000043425
  0
LINE
  5
262
  8
DEFAULT
 10
294.5106949038799
 20
34.29512559314483
 30
0.0
 11
292.5106949038794
 21
34.29512559314483
 31
0.0
  0
LINE
  5
263
  8
DEFAULT
 10
292.5106949038794
 20
34.29512559314483
 30
0.0
 11
252.5106949038794
 21
34.29512559314483
 31
0.0
  0
LINE
  5
264
  8
DEFAULT
 10
252.5106949038794
 20
34.29512559314483
 30
0.0
 11
241.5106949038794
 21
34.29512559314483
 31
0.0
  0
LINE
  5
265
  8
DEFAULT
 10
241.5106949038794
 20
34.29512559314483
 30
0.0
 11
241.5106949038794
 21
38.09512559314501
 31
0.0
  0
LINE
  5
266
  8
DEFAULT
 10
241.5106949038794
 20
38.09512559314501
 30
0.0
 11
233.5106949038794
 21
38.09512559314501
 31
0.0
  0
LINE
  5
267
  8
DEFAULT
 10
233.5106949038794
 20
38.09512559314501
 30
0.0
 11
233.5106949038794
 21
48.4951255931451
 31
0.0
  0
LINE
  5
268
  8
DEFAULT
 10
233.5106949038794
 20
48.4951255931451
 30
0.0
 11
241.5106949038794
 21
48.4951255931451
 31
0.0
  0
LINE
  5
269
  8
DEFAULT
 10
241.5106949038794
 20
48.4951255931451
 30
0.0
 11
241.5106949038794
 21
52.29512559314483
 31
0.0
  0
LINE
  5
26A
  8
DEFAULT
 10
241.5106949038794
 20
52.29512559314483
 30
0.0
 11
252.5106949038794
 21
52.29512559314483
 31
0.0
  0
LINE
  5
26B
  8
DEFAULT
 10
252.5106949038794
 20
52.29512559314483
 30
0.0
 11
280.5106949038794
 21
52.29512559314483
 31
0.0
  0
ARC
  5
26C
  8
DEFAULT
 10
280.5106949038794
 20
57.29512559314483
 30
0.0
 40
5.0
 50
270.0
 51
0.0
  0
LINE
  5
26D
  8
DEFAULT
 10
285.5106949038794
 20
57.29512559314483
 30
0.0
 11
285.5106949038794
 21
59.61012559314489
 31
0.0
  0
LINE
  5
26E
  8
DEFAULT
 10
285.5106949038794
 20
59.61012559314489
 30
0.0
 11
285.5106949038794
 21
64.61012559314489
 31
0.0
  0
LINE
  5
26F
  8
DEFAULT
 10
285.5106949038794
 20
64.61012559314489
 30
0.0
 11
285.5106949038794
 21
93.31012559314516
 31
0.0
  0
LINE
  5
270
  8
DEFAULT
 10
285.5106949038794
 20
93.31012559314516
 30
0.0
 11
285.5106949038794
 21
100.9101255931451
 31
0.0
  0
LINE
  5
271
  8
DEFAULT
 10
285.5106949038794
 20
100.9101255931451
 30
0.0
 11
285.5106949038794
 21
129.6101255931449
 31
0.0
  0
LINE
  5
272
  8
DEFAULT
 10
285.5106949038794
 20
129.6101255931449
 30
0.0
 11
285.5106949038794
 21
134.6101255931449
 31
0.0
  0
LINE
  5
273
  8
DEFAULT
 10
285.5106949038794
 20
134.6101255931449
 30
0.0
 11
285.5106949038794
 21
136.9251255931447
 31
0.0
  0
ARC
  5
274
  8
DEFAULT
 10
280.5106949038794
 20
136.925125593145
 30
0.0
 40
5.0
 50
359.9999999999974
 51
90.0
  0
LINE
  5
275
  8
DEFAULT
 10
280.5106949038794
 20
141.925125593145
 30
0.0
 11
257.5106949038794
 21
141.925125593145
 31
0.0
  0
LINE
  5
276
  8
DEFAULT
 10
257.5106949038794
 20
141.925125593145
 30
0.0
 11
252.5106949038794
 21
141.925125593145
 31
0.0
  0
LINE
  5
277
  8
DEFAULT
 10
252.5106949038794
 20
141.925125593145
 30
0.0
 11
241.5106949038794
 21
141.925125593145
 31
0.0
  0
LINE
  5
278
  8
DEFAULT
 10
241.5106949038794
 20
141.925125593145
 30
0.0
 11
241.5106949038794
 21
145.7251255931452
 31
0.0
  0
LINE
  5
279
  8
DEFAULT
 10
241.5106949038794
 20
145.7251255931452
 30
0.0
 11
233.5106949038794
 21
145.7251255931452
 31
0.0
  0
LINE
  5
27A
  8
DEFAULT
 10
233.5106949038794
 20
145.7251255931452
 30
0.0
 11
233.5106949038794
 21
156.1251255931452
 31
0.0
  0
LINE
  5
27B
  8
DEFAULT
 10
233.5106949038794
 20
156.1251255931452
 30
0.0
 11
241.5106949038794
 21
156.1251255931452
 31
0.0
  0
ENDSEC
  0
EOF
