  0
SECTION
  2
HEADER
  9
$ACADVER
  1
AC1009
  9
$DWGCODEPAGE
  3
ansi_1252
  9
$INSBASE
 10
0.0
 20
0.0
 30
0.0
  9
$EXTMIN
 10
27.85454158423931
 20
18.51754459005429
 30
0.0
  9
$EXTMAX
 10
132.506601041169
 20
123.169604046985
 30
0.0
  9
$LIMMIN
 10
0.0
 20
0.0
  9
$LIMMAX
 10
12.0
 20
9.0
  9
$ORTHOMODE
 70
     0
  9
$REGENMODE
 70
     1
  9
$FILLMODE
 70
     1
  9
$QTEXTMODE
 70
     0
  9
$MIRRTEXT
 70
     1
  9
$DRAGMODE
 70
     2
  9
$LTSCALE
 40
1.0
  9
$OSMODE
 70
    37
  9
$ATTMODE
 70
     1
  9
$TEXTSIZE
 40
0.2
  9
$TRACEWID
 40
0.05
  9
$TEXTSTYLE
  7
STANDARD
  9
$CLAYER
  8
DEFAULT
  9
$CELTYPE
  6
BYLAYER
  9
$CECOLOR
 62
   256
  9
$DIMSCALE
 40
1.0
  9
$DIMASZ
 40
0.18
  9
$DIMEXO
 40
0.0625
  9
$DIMDLI
 40
0.38
  9
$DIMRND
 40
0.0
  9
$DIMDLE
 40
0.0
  9
$DIMEXE
 40
0.18
  9
$DIMTP
 40
0.0
  9
$DIMTM
 40
0.0
  9
$DIMTXT
 40
0.18
  9
$DIMCEN
 40
0.09
  9
$DIMTSZ
 40
0.0
  9
$DIMTOL
 70
     0
  9
$DIMLIM
 70
     0
  9
$DIMTIH
 70
     1
  9
$DIMTOH
 70
     1
  9
$DIMSE1
 70
     0
  9
$DIMSE2
 70
     0
  9
$DIMTAD
 70
     0
  9
$DIMZIN
 70
     0
  9
$DIMBLK
  1

  9
$DIMASO
 70
     1
  9
$DIMSHO
 70
     1
  9
$DIMPOST
  1

  9
$DIMAPOST
  1

  9
$DIMALT
 70
     0
  9
$DIMALTD
 70
     2
  9
$DIMALTF
 40
25.4
  9
$DIMLFAC
 40
1.0
  9
$DIMTOFL
 70
     0
  9
$DIMTVP
 40
0.0
  9
$DIMTIX
 70
     0
  9
$DIMSOXD
 70
     0
  9
$DIMSAH
 70
     0
  9
$DIMBLK1
  1

  9
$DIMBLK2
  1

  9
$DIMSTYLE
  2
STANDARD
  9
$DIMCLRD
 70
     0
  9
$DIMCLRE
 70
     0
  9
$DIMCLRT
 70
     0
  9
$DIMTFAC
 40
1.0
  9
$DIMGAP
 40
0.09
  9
$LUNITS
 70
     2
  9
$LUPREC
 70
     3
  9
$SKETCHINC
 40
0.1
  9
$FILLETRAD
 40
0.5
  9
$AUNITS
 70
     0
  9
$AUPREC
 70
     0
  9
$MENU
  1
.
  9
$ELEVATION
 40
0.0
  9
$PELEVATION
 40
0.0
  9
$THICKNESS
 40
0.0
  9
$LIMCHECK
 70
     0
  9
$CHAMFERA
 40
0.0
  9
$CHAMFERB
 40
0.0
  9
$SKPOLY
 70
     0
  9
$TDCREATE
 40
2457531.948385614
  9
$TDUPDATE
 40
2457531.948404942
  9
$TDINDWG
 40
0.0000000116
  9
$TDUSRTIMER
 40
0.0000000116
  9
$USRTIMER
 70
     1
  9
$ANGBASE
 50
0.0
  9
$ANGDIR
 70
     0
  9
$PDMODE
 70
     0
  9
$PDSIZE
 40
0.0
  9
$PLINEWID
 40
0.0
  9
$COORDS
 70
     1
  9
$SPLFRAME
 70
     0
  9
$SPLINETYPE
 70
     6
  9
$SPLINESEGS
 70
     8
  9
$ATTDIA
 70
     0
  9
$ATTREQ
 70
     1
  9
$HANDLING
 70
     1
  9
$HANDSEED
  5
137
  9
$SURFTAB1
 70
     6
  9
$SURFTAB2
 70
     6
  9
$SURFTYPE
 70
     6
  9
$SURFU
 70
     6
  9
$SURFV
 70
     6
  9
$UCSNAME
  2

  9
$UCSORG
 10
0.0
 20
0.0
 30
0.0
  9
$UCSXDIR
 10
1.0
 20
0.0
 30
0.0
  9
$UCSYDIR
 10
0.0
 20
1.0
 30
0.0
  9
$PUCSNAME
  2

  9
$PUCSORG
 10
0.0
 20
0.0
 30
0.0
  9
$PUCSXDIR
 10
1.0
 20
0.0
 30
0.0
  9
$PUCSYDIR
 10
0.0
 20
1.0
 30
0.0
  9
$USERI1
 70
     0
  9
$USERI2
 70
     0
  9
$USERI3
 70
     0
  9
$USERI4
 70
     0
  9
$USERI5
 70
     0
  9
$USERR1
 40
0.0
  9
$USERR2
 40
0.0
  9
$USERR3
 40
0.0
  9
$USERR4
 40
0.0
  9
$USERR5
 40
0.0
  9
$WORLDVIEW
 70
     1
  9
$SHADEDGE
 70
     3
  9
$SHADEDIF
 70
    70
  9
$TILEMODE
 70
     1
  9
$MAXACTVP
 70
    64
  9
$PLIMCHECK
 70
     0
  9
$PEXTMIN
 10
1.000000000000000E+20
 20
1.000000000000000E+20
 30
1.000000000000000E+20
  9
$PEXTMAX
 10
-1.000000000000000E+20
 20
-1.000000000000000E+20
 30
-1.000000000000000E+20
  9
$PLIMMIN
 10
0.0
 20
0.0
  9
$PLIMMAX
 10
12.0
 20
9.0
  9
$UNITMODE
 70
     0
  9
$VISRETAIN
 70
     1
  9
$PLINEGEN
 70
     0
  9
$PSLTSCALE
 70
     1
  0
ENDSEC
  0
SECTION
  2
TABLES
  0
TABLE
  2
VPORT
 70
     1
  0
VPORT
  2
*ACTIVE
 70
     0
 10
0.0
 20
0.0
 11
1.0
 21
1.0
 12
80.18057131270416
 22
70.84357431851964
 13
0.0
 23
0.0
 14
0.5
 24
0.5
 15
0.5
 25
0.5
 16
0.0
 26
0.0
 36
1.0
 17
0.0
 27
0.0
 37
0.0
 40
106.7451006460693
 41
0.9999999999999901
 42
50.0
 43
0.0
 44
0.0
 50
0.0
 51
0.0
 71
     0
 72
   100
 73
     1
 74
     3
 75
     0
 76
     0
 77
     0
 78
     0
  0
ENDTAB
  0
TABLE
  2
LTYPE
 70
     1
  0
LTYPE
  2
CONTINUOUS
 70
     0
  3
Solid line
 72
    65
 73
     0
 40
0.0
  0
ENDTAB
  0
TABLE
  2
LAYER
 70
     3
  0
LAYER
  2
0
 70
     0
 62
     7
  6
CONTINUOUS
  0
LAYER
  2
LAYER_01
 70
     0
 62
    12
  6
CONTINUOUS
  0
LAYER
  2
DEFAULT
 70
     0
 62
     7
  6
CONTINUOUS
  0
ENDTAB
  0
TABLE
  2
STYLE
 70
     1
  0
STYLE
  2
STANDARD
 70
     0
 40
0.0
 41
1.0
 50
0.0
 71
     0
 42
0.2
  3
txt
  4

  0
ENDTAB
  0
TABLE
  2
VIEW
 70
     0
  0
ENDTAB
  0
TABLE
  2
UCS
 70
     0
  0
ENDTAB
  0
TABLE
  2
APPID
 70
     1
  0
APPID
  2
ACAD
 70
     0
  0
ENDTAB
  0
TABLE
  2
DIMSTYLE
 70
     1
  0
DIMSTYLE
  2
STANDARD
 70
     0
  3

  4

  5

  6

  7

 40
1.0
 41
0.18
 42
0.0625
 43
0.38
 44
0.18
 45
0.0
 46
0.0
 47
0.0
 48
0.0
140
0.18
141
0.09
142
0.0
143
25.4
144
1.0
145
0.0
146
1.0
147
0.09
 71
     0
 72
     0
 73
     1
 74
     1
 75
     0
 76
     0
 77
     0
 78
     0
170
     0
171
     2
172
     0
173
     0
174
     0
175
     0
176
     0
177
     0
178
     0
  0
ENDTAB
  0
ENDSEC
  0
SECTION
  2
BLOCKS
  0
BLOCK
  8
0
  2
$MODEL_SPACE
 70
     0
 10
0.0
 20
0.0
 30
0.0
  3
$MODEL_SPACE
  1

  0
ENDBLK
  5
21
  8
0
  0
BLOCK
 67
     1
  8
0
  2
$PAPER_SPACE
 70
     0
 10
0.0
 20
0.0
 30
0.0
  3
$PAPER_SPACE
  1

  0
ENDBLK
  5
1D
 67
     1
  8
0
  0
ENDSEC
  0
SECTION
  2
ENTITIES
  0
LINE
  5
6F
  8
LAYER_01
 10
87.68057131132787
 20
59.84357431892619
 30
0.0
 11
87.68057131132787
 21
81.84357431892619
 31
0.0
  0
LINE
  5
70
  8
LAYER_01
 10
87.68057131132787
 20
81.84357431892619
 30
0.0
 11
70.68057131132787
 21
81.84357431892619
 31
0.0
  0
LINE
  5
71
  8
LAYER_01
 10
70.68057131132787
 20
81.84357431892619
 30
0.0
 11
70.68057131132787
 21
59.84357431892619
 31
0.0
  0
LINE
  5
72
  8
LAYER_01
 10
70.68057131132787
 20
59.84357431892619
 30
0.0
 11
87.68057131132787
 21
59.84357431892619
 31
0.0
  0
LINE
  5
74
  8
DEFAULT
 10
120.8348941602073
 20
30.21636515402997
 30
0.0
 11
132.506601041169
 21
41.88807203292441
 31
0.0
  0
LINE
  5
75
  8
DEFAULT
 10
132.506601041169
 20
41.88807203292441
 30
0.0
 11
131.5758148894634
 21
43.62530020788386
 31
0.0
  0
LINE
  5
76
  8
DEFAULT
 10
131.5758148894634
 20
43.62530020788386
 30
0.0
 11
130.6858248431644
 21
45.37655884438712
 31
0.0
  0
LINE
  5
77
  8
DEFAULT
 10
130.6858248431644
 20
45.37655884438712
 30
0.0
 11
129.8392876961955
 21
47.14091257833126
 31
0.0
  0
LINE
  5
78
  8
DEFAULT
 10
129.8392876961955
 20
47.14091257833126
 30
0.0
 11
129.0388602424804
 21
48.91742604561335
 31
0.0
  0
LINE
  5
79
  8
DEFAULT
 10
129.0388602424804
 20
48.91742604561335
 30
0.0
 11
128.2871992759425
 21
50.70516388213049
 31
0.0
  0
LINE
  5
7A
  8
DEFAULT
 10
128.2871992759425
 20
50.70516388213049
 30
0.0
 11
127.5869615905055
 21
52.50319072377975
 31
0.0
  0
LINE
  5
7B
  8
DEFAULT
 10
127.5869615905055
 20
52.50319072377975
 30
0.0
 11
126.9408039800931
 21
54.31057120645821
 31
0.0
  0
LINE
  5
7C
  8
DEFAULT
 10
126.9408039800931
 20
54.31057120645821
 30
0.0
 11
126.3513832386286
 21
56.12636996606296
 31
0.0
  0
LINE
  5
7D
  8
DEFAULT
 10
126.3513832386286
 20
56.12636996606296
 30
0.0
 11
125.8213561600358
 21
57.94965163849106
 31
0.0
  0
LINE
  5
7E
  8
DEFAULT
 10
125.8213561600358
 20
57.94965163849106
 30
0.0
 11
125.3533795382383
 21
59.77948085963961
 31
0.0
  0
LINE
  5
7F
  8
DEFAULT
 10
125.3533795382383
 20
59.77948085963961
 30
0.0
 11
125.1434903967388
 21
60.69655849970187
 31
0.0
  0
LINE
  5
80
  8
DEFAULT
 10
125.1434903967388
 20
60.69655849970187
 30
0.0
 11
124.9501101671595
 21
61.61492226540567
 31
0.0
  0
LINE
  5
81
  8
DEFAULT
 10
124.9501101671595
 20
61.61492226540567
 30
0.0
 11
124.7735709487408
 21
62.53445523623811
 31
0.0
  0
LINE
  5
82
  8
DEFAULT
 10
124.7735709487408
 20
62.53445523623811
 30
0.0
 11
124.6142048407231
 21
63.45504049168633
 31
0.0
  0
LINE
  5
83
  8
DEFAULT
 10
124.6142048407231
 20
63.45504049168633
 30
0.0
 11
124.472343942347
 21
64.37656111123746
 31
0.0
  0
LINE
  5
84
  8
DEFAULT
 10
124.472343942347
 20
64.37656111123746
 30
0.0
 11
124.3483203528528
 21
65.29890017437867
 31
0.0
  0
LINE
  5
85
  8
DEFAULT
 10
124.3483203528528
 20
65.29890017437867
 30
0.0
 11
124.2424661714809
 21
66.22194076059705
 31
0.0
  0
LINE
  5
86
  8
DEFAULT
 10
124.2424661714809
 20
66.22194076059705
 30
0.0
 11
124.1551134974719
 21
67.14556594937977
 31
0.0
  0
LINE
  5
87
  8
DEFAULT
 10
124.1551134974719
 20
67.14556594937977
 30
0.0
 11
124.0865944300662
 21
68.06965882021395
 31
0.0
  0
LINE
  5
88
  8
DEFAULT
 10
124.0865944300662
 20
68.06965882021395
 30
0.0
 11
124.0372410685043
 21
68.9941024525867
 31
0.0
  0
LINE
  5
89
  8
DEFAULT
 10
124.0372410685043
 20
68.9941024525867
 30
0.0
 11
124.0073855120265
 21
69.9187799259852
 31
0.0
  0
LINE
  5
8A
  8
DEFAULT
 10
124.0073855120265
 20
69.9187799259852
 30
0.0
 11
123.9973598598733
 21
70.84357431989656
 31
0.0
  0
LINE
  5
8B
  8
DEFAULT
 10
123.9973598598733
 20
70.84357431989656
 30
0.0
 11
124.0073019761017
 21
71.77011346373816
 31
0.0
  0
LINE
  5
8C
  8
DEFAULT
 10
124.0073019761017
 20
71.77011346373816
 30
0.0
 11
124.0369114432175
 21
72.69653456131917
 31
0.0
  0
LINE
  5
8D
  8
DEFAULT
 10
124.0369114432175
 20
72.69653456131917
 30
0.0
 11
124.0858629381344
 21
73.622719566379
 31
0.0
  0
LINE
  5
8E
  8
DEFAULT
 10
124.0858629381344
 20
73.622719566379
 30
0.0
 11
124.1538311377659
 21
74.54855043265708
 31
0.0
  0
LINE
  5
8F
  8
DEFAULT
 10
124.1538311377659
 20
74.54855043265708
 30
0.0
 11
124.2404907190259
 21
75.47390911389283
 31
0.0
  0
LINE
  5
90
  8
DEFAULT
 10
124.2404907190259
 20
75.47390911389283
 30
0.0
 11
124.3455163588278
 21
76.39867756382563
 31
0.0
  0
LINE
  5
91
  8
DEFAULT
 10
124.3455163588278
 20
76.39867756382563
 30
0.0
 11
124.4685827340855
 21
77.32273773619491
 31
0.0
  0
LINE
  5
92
  8
DEFAULT
 10
124.4685827340855
 20
77.32273773619491
 30
0.0
 11
124.6093645217125
 21
78.24597158474009
 31
0.0
  0
LINE
  5
93
  8
DEFAULT
 10
124.6093645217125
 20
78.24597158474009
 30
0.0
 11
124.7675363986224
 21
79.16826106320059
 31
0.0
  0
LINE
  5
94
  8
DEFAULT
 10
124.7675363986224
 20
79.16826106320059
 30
0.0
 11
124.9427730417291
 21
80.0894881253158
 31
0.0
  0
LINE
  5
95
  8
DEFAULT
 10
124.9427730417291
 20
80.0894881253158
 30
0.0
 11
125.343139334187
 21
81.92828281546804
 31
0.0
  0
LINE
  5
96
  8
DEFAULT
 10
125.343139334187
 20
81.92828281546804
 30
0.0
 11
125.8078608143955
 21
83.76141128511216
 31
0.0
  0
LINE
  5
97
  8
DEFAULT
 10
125.8078608143955
 20
83.76141128511216
 30
0.0
 11
126.3343348976638
 21
85.58792916416343
 31
0.0
  0
LINE
  5
98
  8
DEFAULT
 10
126.3343348976638
 20
85.58792916416343
 30
0.0
 11
126.9199589993012
 21
87.40689208253717
 31
0.0
  0
LINE
  5
99
  8
DEFAULT
 10
126.9199589993012
 20
87.40689208253717
 30
0.0
 11
127.5621305346169
 21
89.21735567014869
 31
0.0
  0
LINE
  5
9A
  8
DEFAULT
 10
127.5621305346169
 20
89.21735567014869
 30
0.0
 11
128.2582469189202
 21
91.0183755569133
 31
0.0
  0
LINE
  5
9B
  8
DEFAULT
 10
128.2582469189202
 20
91.0183755569133
 30
0.0
 11
129.0057055675205
 21
92.80900737274632
 31
0.0
  0
LINE
  5
9C
  8
DEFAULT
 10
129.0057055675205
 20
92.80900737274632
 30
0.0
 11
129.8019038957269
 21
94.58830674756305
 31
0.0
  0
LINE
  5
9D
  8
DEFAULT
 10
129.8019038957269
 20
94.58830674756305
 30
0.0
 11
130.6442393188487
 21
96.35532931127878
 31
0.0
  0
LINE
  5
9E
  8
DEFAULT
 10
130.6442393188487
 20
96.35532931127878
 30
0.0
 11
131.5301092521952
 21
98.10913069380884
 31
0.0
  0
LINE
  5
9F
  8
DEFAULT
 10
131.5301092521952
 20
98.10913069380884
 30
0.0
 11
132.4569111110757
 21
99.84876652506853
 31
0.0
  0
LINE
  5
A0
  8
DEFAULT
 10
132.4569111110757
 20
99.84876652506853
 30
0.0
 11
120.8077804733118
 21
111.497897164896
 31
0.0
  0
LINE
  5
A1
  8
DEFAULT
 10
120.8077804733118
 20
111.497897164896
 30
0.0
 11
109.1360735932901
 21
123.169604046985
 31
0.0
  0
LINE
  5
A2
  8
DEFAULT
 10
109.1360735932901
 20
123.169604046985
 30
0.0
 11
107.3988446175953
 21
122.2388176251651
 31
0.0
  0
LINE
  5
A3
  8
DEFAULT
 10
107.3988446175953
 20
122.2388176251651
 30
0.0
 11
105.6475853353984
 21
121.3488273784456
 31
0.0
  0
LINE
  5
A4
  8
DEFAULT
 10
105.6475853353984
 20
121.3488273784456
 30
0.0
 11
103.8832311004661
 21
120.5022900935382
 31
0.0
  0
LINE
  5
A5
  8
DEFAULT
 10
103.8832311004661
 20
120.5022900935382
 30
0.0
 11
102.1067172665653
 21
119.7018625571545
 31
0.0
  0
LINE
  5
A6
  8
DEFAULT
 10
102.1067172665653
 20
119.7018625571545
 30
0.0
 11
100.3189791874627
 21
118.9502015560062
 31
0.0
  0
LINE
  5
A7
  8
DEFAULT
 10
100.3189791874627
 20
118.9502015560062
 30
0.0
 11
98.52095221692518
 21
118.249963876805
 31
0.0
  0
LINE
  5
A8
  8
DEFAULT
 10
98.52095221692518
 20
118.249963876805
 30
0.0
 11
96.71357170871958
 21
117.6038063062625
 31
0.0
  0
LINE
  5
A9
  8
DEFAULT
 10
96.71357170871958
 20
117.6038063062625
 30
0.0
 11
94.89777301661269
 21
117.0143856310903
 31
0.0
  0
LINE
  5
AA
  8
DEFAULT
 10
94.89777301661269
 20
117.0143856310903
 30
0.0
 11
93.0744914943713
 21
116.484358638
 31
0.0
  0
LINE
  5
AB
  8
DEFAULT
 10
93.0744914943713
 20
116.484358638
 30
0.0
 11
91.24466249576221
 21
116.0163821137034
 31
0.0
  0
LINE
  5
AC
  8
DEFAULT
 10
91.24466249576221
 20
116.0163821137034
 30
0.0
 11
90.32758499087194
 21
115.8064930232001
 31
0.0
  0
LINE
  5
AD
  8
DEFAULT
 10
90.32758499087194
 20
115.8064930232001
 30
0.0
 11
89.40922137455229
 21
115.613112844912
 31
0.0
  0
LINE
  5
AE
  8
DEFAULT
 10
89.40922137455229
 20
115.613112844912
 30
0.0
 11
88.48968856602411
 21
115.4365736771782
 31
0.0
  0
LINE
  5
AF
  8
DEFAULT
 10
88.48968856602411
 20
115.4365736771782
 30
0.0
 11
87.56910348450828
 21
115.2772076183376
 31
0.0
  0
LINE
  5
B0
  8
DEFAULT
 10
87.56910348450828
 20
115.2772076183376
 30
0.0
 11
86.64758304922563
 21
115.1353467667291
 31
0.0
  0
LINE
  5
B1
  8
DEFAULT
 10
86.64758304922563
 20
115.1353467667291
 30
0.0
 11
85.72524417939704
 21
115.0113232206917
 31
0.0
  0
LINE
  5
B2
  8
DEFAULT
 10
85.72524417939704
 20
115.0113232206917
 30
0.0
 11
84.80220379424333
 21
114.9054690785643
 31
0.0
  0
LINE
  5
B3
  8
DEFAULT
 10
84.80220379424333
 20
114.9054690785643
 30
0.0
 11
83.87857881298534
 21
114.818116438686
 31
0.0
  0
LINE
  5
B4
  8
DEFAULT
 10
83.87857881298534
 20
114.818116438686
 30
0.0
 11
82.95448615484395
 21
114.7495973993956
 31
0.0
  0
LINE
  5
B5
  8
DEFAULT
 10
82.95448615484395
 20
114.7495973993956
 30
0.0
 11
82.03004273904001
 21
114.7002440590321
 31
0.0
  0
LINE
  5
B6
  8
DEFAULT
 10
82.03004273904001
 20
114.7002440590321
 30
0.0
 11
81.10536548479436
 21
114.6703885159345
 31
0.0
  0
LINE
  5
B7
  8
DEFAULT
 10
81.10536548479436
 20
114.6703885159345
 30
0.0
 11
80.18057131132787
 21
114.6603628684418
 31
0.0
  0
LINE
  5
B8
  8
DEFAULT
 10
80.18057131132787
 20
114.6603628684418
 30
0.0
 11
79.25403238817927
 21
114.6703049800525
 31
0.0
  0
LINE
  5
B9
  8
DEFAULT
 10
79.25403238817927
 20
114.6703049800525
 30
0.0
 11
78.32761150999686
 21
114.6999144339112
 31
0.0
  0
LINE
  5
BA
  8
DEFAULT
 10
78.32761150999686
 20
114.6999144339112
 30
0.0
 11
77.40142672174684
 21
114.7488659078251
 31
0.0
  0
LINE
  5
BB
  8
DEFAULT
 10
77.40142672174684
 20
114.7488659078251
 30
0.0
 11
76.4755960683954
 21
114.8168340796018
 31
0.0
  0
LINE
  5
BC
  8
DEFAULT
 10
76.4755960683954
 20
114.8168340796018
 30
0.0
 11
75.55023759490878
 21
114.9034936270485
 31
0.0
  0
LINE
  5
BD
  8
DEFAULT
 10
75.55023759490878
 20
114.9034936270485
 30
0.0
 11
74.62546934625314
 21
115.0085192279727
 31
0.0
  0
LINE
  5
BE
  8
DEFAULT
 10
74.62546934625314
 20
115.0085192279727
 30
0.0
 11
73.70140936739467
 21
115.1315855601818
 31
0.0
  0
LINE
  5
BF
  8
DEFAULT
 10
73.70140936739467
 20
115.1315855601818
 30
0.0
 11
72.77817570329961
 21
115.2723673014833
 31
0.0
  0
LINE
  5
C0
  8
DEFAULT
 10
72.77817570329961
 20
115.2723673014833
 30
0.0
 11
71.85588639893413
 21
115.4305391296844
 31
0.0
  0
LINE
  5
C1
  8
DEFAULT
 10
71.85588639893413
 20
115.4305391296844
 30
0.0
 11
70.93465949926444
 21
115.6057757225926
 31
0.0
  0
LINE
  5
C2
  8
DEFAULT
 10
70.93465949926444
 20
115.6057757225926
 30
0.0
 11
69.09586509387721
 21
116.0061419137598
 31
0.0
  0
LINE
  5
C3
  8
DEFAULT
 10
69.09586509387721
 20
116.0061419137598
 30
0.0
 11
67.26273684686751
 21
116.4708632974443
 31
0.0
  0
LINE
  5
C4
  8
DEFAULT
 10
67.26273684686751
 20
116.4708632974443
 30
0.0
 11
65.43621911796498
 21
116.9973372961052
 31
0.0
  0
LINE
  5
C5
  8
DEFAULT
 10
65.43621911796498
 20
116.9973372961052
 30
0.0
 11
63.61725626689916
 21
117.5829613322016
 31
0.0
  0
LINE
  5
C6
  8
DEFAULT
 10
63.61725626689916
 20
117.5829613322016
 30
0.0
 11
61.80679265339966
 21
118.2251328281928
 31
0.0
  0
LINE
  5
C7
  8
DEFAULT
 10
61.80679265339966
 20
118.2251328281928
 30
0.0
 11
60.00577263719607
 21
118.9212492065381
 31
0.0
  0
LINE
  5
C8
  8
DEFAULT
 10
60.00577263719607
 20
118.9212492065381
 30
0.0
 11
58.21514057801799
 21
119.6687078896965
 31
0.0
  0
LINE
  5
C9
  8
DEFAULT
 10
58.21514057801799
 20
119.6687078896965
 30
0.0
 11
56.435840835595
 21
120.4649063001273
 31
0.0
  0
LINE
  5
CA
  8
DEFAULT
 10
56.435840835595
 20
120.4649063001273
 30
0.0
 11
54.66881776965672
 21
121.3072418602897
 31
0.0
  0
LINE
  5
CB
  8
DEFAULT
 10
54.66881776965672
 20
121.3072418602897
 30
0.0
 11
52.91501573993272
 21
122.193111992643
 31
0.0
  0
LINE
  5
CC
  8
DEFAULT
 10
52.91501573993272
 20
122.193111992643
 30
0.0
 11
51.1753791061526
 21
123.1199141196462
 31
0.0
  0
LINE
  5
CD
  8
DEFAULT
 10
51.1753791061526
 20
123.1199141196462
 30
0.0
 11
39.52624846244794
 21
111.4707834780002
 31
0.0
  0
LINE
  5
CE
  8
DEFAULT
 10
39.52624846244794
 20
111.4707834780002
 30
0.0
 11
27.85454158423931
 21
99.7990766018595
 31
0.0
  0
LINE
  5
CF
  8
DEFAULT
 10
27.85454158423931
 20
99.7990766018595
 30
0.0
 11
28.78532773566586
 21
98.06184842717377
 31
0.0
  0
LINE
  5
D0
  8
DEFAULT
 10
28.78532773566586
 20
98.06184842717377
 30
0.0
 11
29.67531778169337
 21
96.31058979095187
 31
0.0
  0
LINE
  5
D1
  8
DEFAULT
 10
29.67531778169337
 20
96.31058979095187
 30
0.0
 11
30.5218549283997
 21
94.54623605729617
 31
0.0
  0
LINE
  5
D2
  8
DEFAULT
 10
30.5218549283997
 20
94.54623605729617
 30
0.0
 11
31.32228238186273
 21
92.76972259030913
 31
0.0
  0
LINE
  5
D3
  8
DEFAULT
 10
31.32228238186273
 20
92.76972259030913
 30
0.0
 11
32.07394334816031
 21
90.98198475409313
 31
0.0
  0
LINE
  5
D4
  8
DEFAULT
 10
32.07394334816031
 20
90.98198475409313
 30
0.0
 11
32.7741810333703
 21
89.1839579127506
 31
0.0
  0
LINE
  5
D5
  8
DEFAULT
 10
32.7741810333703
 20
89.1839579127506
 30
0.0
 11
33.42033864357056
 21
87.37657743038395
 31
0.0
  0
LINE
  5
D6
  8
DEFAULT
 10
33.42033864357056
 20
87.37657743038395
 30
0.0
 11
34.00975938483896
 21
85.56077867109559
 31
0.0
  0
LINE
  5
D7
  8
DEFAULT
 10
34.00975938483896
 20
85.56077867109559
 30
0.0
 11
34.53978646325335
 21
83.73749699898792
 31
0.0
  0
LINE
  5
D8
  8
DEFAULT
 10
34.53978646325335
 20
83.73749699898792
 30
0.0
 11
35.00776308489161
 21
81.90766777816339
 31
0.0
  0
LINE
  5
D9
  8
DEFAULT
 10
35.00776308489161
 20
81.90766777816339
 30
0.0
 11
35.21765222631902
 21
80.99059013826427
 31
0.0
  0
LINE
  5
DA
  8
DEFAULT
 10
35.21765222631902
 20
80.99059013826427
 30
0.0
 11
35.41103245583158
 21
80.07222637272434
 31
0.0
  0
LINE
  5
DB
  8
DEFAULT
 10
35.41103245583158
 20
80.07222637272434
 30
0.0
 11
35.58757167418904
 21
79.15269340205641
 31
0.0
  0
LINE
  5
DC
  8
DEFAULT
 10
35.58757167418904
 20
79.15269340205641
 30
0.0
 11
35.74693778215114
 21
78.23210814677327
 31
0.0
  0
LINE
  5
DD
  8
DEFAULT
 10
35.74693778215114
 20
78.23210814677327
 30
0.0
 11
35.88879868047759
 21
77.31058752738771
 31
0.0
  0
LINE
  5
DE
  8
DEFAULT
 10
35.88879868047759
 20
77.31058752738771
 30
0.0
 11
36.01282226992814
 21
76.38824846441253
 31
0.0
  0
LINE
  5
DF
  8
DEFAULT
 10
36.01282226992814
 20
76.38824846441253
 30
0.0
 11
36.1186764512625
 21
75.46520787836054
 31
0.0
  0
LINE
  5
E0
  8
DEFAULT
 10
36.1186764512625
 20
75.46520787836054
 30
0.0
 11
36.20602912524044
 21
74.54158268974456
 31
0.0
  0
LINE
  5
E1
  8
DEFAULT
 10
36.20602912524044
 20
74.54158268974456
 30
0.0
 11
36.27454819262167
 21
73.61748981907736
 31
0.0
  0
LINE
  5
E2
  8
DEFAULT
 10
36.27454819262167
 20
73.61748981907736
 30
0.0
 11
36.32390155416592
 21
72.69304618687177
 31
0.0
  0
LINE
  5
E3
  8
DEFAULT
 10
36.32390155416592
 20
72.69304618687177
 30
0.0
 11
36.35375711063293
 21
71.76836871364057
 31
0.0
  0
LINE
  5
E4
  8
DEFAULT
 10
36.35375711063293
 20
71.76836871364057
 30
0.0
 11
36.36378276278242
 21
70.84357431989656
 31
0.0
  0
LINE
  5
E5
  8
DEFAULT
 10
36.36378276278242
 20
70.84357431989656
 30
0.0
 11
36.35384064655042
 21
69.91703517588725
 31
0.0
  0
LINE
  5
E6
  8
DEFAULT
 10
36.35384064655042
 20
69.91703517588725
 30
0.0
 11
36.32423117942397
 21
68.99061407813859
 31
0.0
  0
LINE
  5
E7
  8
DEFAULT
 10
36.32423117942397
 20
68.99061407813859
 30
0.0
 11
36.27527968448958
 21
68.06442907291122
 31
0.0
  0
LINE
  5
E8
  8
DEFAULT
 10
36.27527968448958
 20
68.06442907291122
 30
0.0
 11
36.20731148483377
 21
67.13859820646583
 31
0.0
  0
LINE
  5
E9
  8
DEFAULT
 10
36.20731148483377
 20
67.13859820646583
 30
0.0
 11
36.12065190354306
 21
66.21323952506302
 31
0.0
  0
LINE
  5
EA
  8
DEFAULT
 10
36.12065190354306
 20
66.21323952506302
 30
0.0
 11
36.01562626370397
 21
65.28847107496347
 31
0.0
  0
LINE
  5
EB
  8
DEFAULT
 10
36.01562626370397
 20
65.28847107496347
 30
0.0
 11
35.89255988840301
 21
64.36441090242782
 31
0.0
  0
LINE
  5
EC
  8
DEFAULT
 10
35.89255988840301
 20
64.36441090242782
 30
0.0
 11
35.75177810072671
 21
63.44117705371674
 31
0.0
  0
LINE
  5
ED
  8
DEFAULT
 10
35.75177810072671
 20
63.44117705371674
 30
0.0
 11
35.59360622376158
 21
62.51888757509085
 31
0.0
  0
LINE
  5
EE
  8
DEFAULT
 10
35.59360622376158
 20
62.51888757509085
 30
0.0
 11
35.41836958059414
 21
61.59766051281083
 31
0.0
  0
LINE
  5
EF
  8
DEFAULT
 10
35.41836958059414
 20
61.59766051281083
 30
0.0
 11
35.0180032879984
 21
59.75886582233093
 31
0.0
  0
LINE
  5
F0
  8
DEFAULT
 10
35.0180032879984
 20
59.75886582233093
 30
0.0
 11
34.55328180763166
 21
57.92573735236225
 31
0.0
  0
LINE
  5
F1
  8
DEFAULT
 10
34.55328180763166
 20
57.92573735236225
 30
0.0
 11
34.02680772418603
 21
56.09921947299
 31
0.0
  0
LINE
  5
F2
  8
DEFAULT
 10
34.02680772418603
 20
56.09921947299
 30
0.0
 11
33.44118362235368
 21
54.28025655429938
 31
0.0
  0
LINE
  5
F3
  8
DEFAULT
 10
33.44118362235368
 20
54.28025655429938
 30
0.0
 11
32.79901208682676
 21
52.4697929663756
 31
0.0
  0
LINE
  5
F4
  8
DEFAULT
 10
32.79901208682676
 20
52.4697929663756
 30
0.0
 11
32.1028957022974
 21
50.66877307930385
 31
0.0
  0
LINE
  5
F5
  8
DEFAULT
 10
32.1028957022974
 20
50.66877307930385
 30
0.0
 11
31.35543705345776
 21
48.87814126316935
 31
0.0
  0
LINE
  5
F6
  8
DEFAULT
 10
31.35543705345776
 20
48.87814126316935
 30
0.0
 11
30.55923872499999
 21
47.09884188805729
 31
0.0
  0
LINE
  5
F7
  8
DEFAULT
 10
30.55923872499999
 20
47.09884188805729
 30
0.0
 11
29.71690330161622
 21
45.33181932405289
 31
0.0
  0
LINE
  5
F8
  8
DEFAULT
 10
29.71690330161622
 20
45.33181932405289
 30
0.0
 11
28.83103336799861
 21
43.57801794124133
 31
0.0
  0
LINE
  5
F9
  8
DEFAULT
 10
28.83103336799861
 20
43.57801794124133
 30
0.0
 11
27.9042315088393
 21
41.83838210970782
 31
0.0
  0
LINE
  5
FA
  8
DEFAULT
 10
27.9042315088393
 20
41.83838210970782
 30
0.0
 11
39.55336214934209
 21
30.18925146713627
 31
0.0
  0
LINE
  5
FB
  8
DEFAULT
 10
39.55336214934209
 20
30.18925146713627
 30
0.0
 11
51.22506902435293
 21
18.51754459005429
 31
0.0
  0
LINE
  5
FC
  8
DEFAULT
 10
51.22506902435293
 20
18.51754459005429
 30
0.0
 11
52.9622980003215
 21
19.44833101215355
 31
0.0
  0
LINE
  5
FD
  8
DEFAULT
 10
52.9622980003215
 20
19.44833101215355
 30
0.0
 11
54.71355728279988
 21
20.33832125914479
 31
0.0
  0
LINE
  5
FE
  8
DEFAULT
 10
54.71355728279988
 20
20.33832125914479
 30
0.0
 11
56.47791151802075
 21
21.18485854431495
 31
0.0
  0
LINE
  5
FF
  8
DEFAULT
 10
56.47791151802075
 20
21.18485854431495
 30
0.0
 11
58.25442535221678
 21
21.98528608095091
 31
0.0
  0
LINE
  5
100
  8
DEFAULT
 10
58.25442535221678
 20
21.98528608095091
 30
0.0
 11
60.04216343162068
 21
22.7369470823396
 31
0.0
  0
LINE
  5
101
  8
DEFAULT
 10
60.04216343162068
 20
22.7369470823396
 30
0.0
 11
61.8401904024651
 21
23.43718476176792
 31
0.0
  0
LINE
  5
102
  8
DEFAULT
 10
61.8401904024651
 20
23.43718476176792
 30
0.0
 11
63.64757091098274
 21
24.08334233252279
 31
0.0
  0
LINE
  5
103
  8
DEFAULT
 10
63.64757091098274
 20
24.08334233252279
 30
0.0
 11
65.46336960340625
 21
24.67276300789111
 31
0.0
  0
LINE
  5
104
  8
DEFAULT
 10
65.46336960340625
 20
24.67276300789111
 30
0.0
 11
67.28665112596833
 21
25.20279000115979
 31
0.0
  0
LINE
  5
105
  8
DEFAULT
 10
67.28665112596833
 20
25.20279000115979
 30
0.0
 11
69.11648012490167
 21
25.67076652561575
 31
0.0
  0
LINE
  5
106
  8
DEFAULT
 10
69.11648012490167
 20
25.67076652561575
 30
0.0
 11
70.03355762995528
 21
25.88065561619111
 31
0.0
  0
LINE
  5
107
  8
DEFAULT
 10
70.03355762995528
 20
25.88065561619111
 30
0.0
 11
70.95192124643893
 21
26.07403579454589
 31
0.0
  0
LINE
  5
108
  8
DEFAULT
 10
70.95192124643893
 20
26.07403579454589
 30
0.0
 11
71.87145405513175
 21
26.25057496234093
 31
0.0
  0
LINE
  5
109
  8
DEFAULT
 10
71.87145405513175
 20
26.25057496234093
 30
0.0
 11
72.79203913681279
 21
26.40994102123712
 31
0.0
  0
LINE
  5
10A
  8
DEFAULT
 10
72.79203913681279
 20
26.40994102123712
 30
0.0
 11
73.71355957226115
 21
26.55180187289531
 31
0.0
  0
LINE
  5
10B
  8
DEFAULT
 10
73.71355957226115
 20
26.55180187289531
 30
0.0
 11
74.63589844225592
 21
26.67582541897637
 31
0.0
  0
LINE
  5
10C
  8
DEFAULT
 10
74.63589844225592
 20
26.67582541897637
 30
0.0
 11
75.5589388275762
 21
26.78167956114115
 31
0.0
  0
LINE
  5
10D
  8
DEFAULT
 10
75.5589388275762
 20
26.78167956114115
 30
0.0
 11
76.48256380900105
 21
26.86903220105053
 31
0.0
  0
LINE
  5
10E
  8
DEFAULT
 10
76.48256380900105
 20
26.86903220105053
 30
0.0
 11
77.40665646730956
 21
26.93755124036536
 31
0.0
  0
LINE
  5
10F
  8
DEFAULT
 10
77.40665646730956
 20
26.93755124036536
 30
0.0
 11
78.3310998832808
 21
26.98690458074651
 31
0.0
  0
LINE
  5
110
  8
DEFAULT
 10
78.3310998832808
 20
26.98690458074651
 30
0.0
 11
79.25577713769387
 21
27.01676012385484
 31
0.0
  0
LINE
  5
111
  8
DEFAULT
 10
79.25577713769387
 20
27.01676012385484
 30
0.0
 11
80.18057131132787
 21
27.02678577135123
 31
0.0
  0
LINE
  5
112
  8
DEFAULT
 10
80.18057131132787
 20
27.02678577135123
 30
0.0
 11
81.1071104553373
 21
27.0168436551192
 31
0.0
  0
LINE
  5
113
  8
DEFAULT
 10
81.1071104553373
 20
27.0168436551192
 30
0.0
 11
82.03353155308609
 21
26.98723418799272
 31
0.0
  0
LINE
  5
114
  8
DEFAULT
 10
82.03353155308609
 20
26.98723418799272
 30
0.0
 11
82.95971655831359
 21
26.9382826930583
 31
0.0
  0
LINE
  5
115
  8
DEFAULT
 10
82.95971655831359
 20
26.9382826930583
 30
0.0
 11
83.88554742475911
 21
26.87031449340246
 31
0.0
  0
LINE
  5
116
  8
DEFAULT
 10
83.88554742475911
 20
26.87031449340246
 30
0.0
 11
84.81090610616204
 21
26.78365491211171
 31
0.0
  0
LINE
  5
117
  8
DEFAULT
 10
84.81090610616204
 20
26.78365491211171
 30
0.0
 11
85.73567455626173
 21
26.67862927227258
 31
0.0
  0
LINE
  5
118
  8
DEFAULT
 10
85.73567455626173
 20
26.67862927227258
 30
0.0
 11
86.6597347287975
 21
26.55556289697159
 31
0.0
  0
LINE
  5
119
  8
DEFAULT
 10
86.6597347287975
 20
26.55556289697159
 30
0.0
 11
87.58296857750872
 21
26.41478110929524
 31
0.0
  0
LINE
  5
11A
  8
DEFAULT
 10
87.58296857750872
 20
26.41478110929524
 30
0.0
 11
88.50525805613475
 21
26.25660923233006
 31
0.0
  0
LINE
  5
11B
  8
DEFAULT
 10
88.50525805613475
 20
26.25660923233006
 30
0.0
 11
89.42648511841492
 21
26.08137258916257
 31
0.0
  0
LINE
  5
11C
  8
DEFAULT
 10
89.42648511841492
 20
26.08137258916257
 30
0.0
 11
91.26527980889507
 21
25.68100629656674
 31
0.0
  0
LINE
  5
11D
  8
DEFAULT
 10
91.26527980889507
 20
25.68100629656674
 30
0.0
 11
93.09840827886401
 21
25.21628481619987
 31
0.0
  0
LINE
  5
11E
  8
DEFAULT
 10
93.09840827886401
 20
25.21628481619987
 30
0.0
 11
94.92492615823653
 21
24.68981073275412
 31
0.0
  0
LINE
  5
11F
  8
DEFAULT
 10
94.92492615823653
 20
24.68981073275412
 30
0.0
 11
96.74388907692742
 21
24.10418663092164
 31
0.0
  0
LINE
  5
120
  8
DEFAULT
 10
96.74388907692742
 20
24.10418663092164
 30
0.0
 11
98.55435266485146
 21
23.46201509539456
 31
0.0
  0
LINE
  5
121
  8
DEFAULT
 10
98.55435266485146
 20
23.46201509539456
 30
0.0
 11
100.3553725519235
 21
22.76589871086505
 31
0.0
  0
LINE
  5
122
  8
DEFAULT
 10
100.3553725519235
 20
22.76589871086505
 30
0.0
 11
102.1460043680582
 21
22.01844006202523
 31
0.0
  0
LINE
  5
123
  8
DEFAULT
 10
102.1460043680582
 20
22.01844006202523
 30
0.0
 11
103.9253037431706
 21
21.22224173356727
 31
0.0
  0
LINE
  5
124
  8
DEFAULT
 10
103.9253037431706
 20
21.22224173356727
 30
0.0
 11
105.6923263071752
 21
20.37990631018331
 31
0.0
  0
LINE
  5
125
  8
DEFAULT
 10
105.6923263071752
 20
20.37990631018331
 30
0.0
 11
107.4461276899871
 21
19.49403637656548
 31
0.0
  0
LINE
  5
126
  8
DEFAULT
 10
107.4461276899871
 20
19.49403637656548
 30
0.0
 11
109.1857635215208
 21
18.56723451740595
 31
0.0
  0
LINE
  5
127
  8
DEFAULT
 10
109.1857635215194
 20
18.5672345174064
 30
0.0
 11
120.8348941602073
 21
30.21636515402997
 31
0.0
  0
CIRCLE
  5
128
  8
LAYER_01
 10
52.9980922608604
 20
114.3360255571649
 30
0.0
 40
1.0
  0
CIRCLE
  5
129
  8
LAYER_01
 10
35.7627164620551
 20
97.10064976141916
 30
0.0
 40
1.0
  0
CIRCLE
  5
12A
  8
LAYER_01
 10
106.4376467567329
 20
115.2614291652869
 30
0.0
 40
1.0
  0
CIRCLE
  5
12B
  8
LAYER_01
 10
123.6730225524786
 20
98.0260533664815
 30
0.0
 40
1.0
  0
CIRCLE
  5
12C
  8
LAYER_01
 10
107.3630503617949
 20
27.35112307486474
 30
0.0
 40
1.0
  0
CIRCLE
  5
12D
  8
LAYER_01
 10
124.5984261605997
 20
44.58649887061051
 30
0.0
 40
1.0
  0
CIRCLE
  5
12E
  8
LAYER_01
 10
36.688120070178
 20
43.66109526554771
 30
0.0
 40
1.0
  0
CIRCLE
  5
12F
  8
LAYER_01
 10
53.92349586592377
 20
26.42571946674229
 30
0.0
 40
1.0
  0
ENDSEC
  0
EOF
